<svg width="227" height="227" viewBox="0 0 227 227" fill="none" xmlns="http://www.w3.org/2000/svg">
<rect width="227" height="227" rx="40" fill="#7DB5C8"/>
<g clip-path="url(#clip0_393_3258)">
<path d="M108.875 69.6139L70.8761 108.81C68.3664 111.399 68.3664 115.596 70.8761 118.185L108.875 157.381C111.385 159.97 115.454 159.97 117.963 157.381L155.962 118.185C158.472 115.596 158.472 111.399 155.962 108.81L117.963 69.6139C115.454 67.0251 111.385 67.025 108.875 69.6139Z" fill="#2484C6"/>
<path d="M126.749 47.7035V11.4297C126.748 10.8617 126.911 10.3063 127.217 9.83407C127.523 9.36181 127.958 8.99391 128.467 8.77704C128.976 8.56017 129.536 8.50411 130.075 8.61596C130.615 8.72781 131.111 9.00254 131.499 9.40529L214.338 94.8551C214.729 95.2556 214.995 95.7667 215.103 96.3235C215.212 96.8804 215.158 97.4579 214.947 97.9829C214.737 98.5078 214.38 98.9565 213.923 99.2721C213.465 99.5876 212.926 99.7558 212.376 99.7553H177.21C176.842 99.7518 176.479 99.6732 176.14 99.5241C175.802 99.3749 175.496 99.1582 175.239 98.8865L127.566 49.7105C127.049 49.1777 126.755 48.4571 126.749 47.7035Z" fill="#2484C6"/>
<path d="M14.4723 127.254H49.6379C50.0044 127.258 50.3665 127.337 50.7033 127.486C51.0401 127.635 51.345 127.851 51.6004 128.122L99.2741 177.298C99.5369 177.562 99.7466 177.876 99.8912 178.224C100.036 178.571 100.112 178.945 100.116 179.323V215.597C100.115 216.163 99.9503 216.717 99.6444 217.188C99.3384 217.659 98.9044 218.026 98.3968 218.243C97.8892 218.461 97.3307 218.518 96.7914 218.409C96.2521 218.3 95.7562 218.029 95.3658 217.63L12.5266 132.18" fill="#2484C6"/>
<path d="M14.4723 99.7551H49.6379C50.0044 99.7509 50.3665 99.6719 50.7033 99.5228C51.0401 99.3737 51.345 99.1574 51.6004 98.8862L99.2741 49.7102C99.5376 49.4454 99.7476 49.1295 99.8922 48.7805C100.037 48.4316 100.113 48.0566 100.116 47.6772V11.4294C100.117 10.8614 99.9538 10.3061 99.6479 9.83383C99.342 9.36156 98.907 8.99366 98.3981 8.77679C97.8892 8.55992 97.3293 8.50387 96.7894 8.61572C96.2495 8.72757 95.7541 9.00229 95.3658 9.40505L12.5266 94.8548" fill="#2484C6"/>
<path d="M126.749 179.297V215.571C126.75 216.138 126.915 216.691 127.22 217.162C127.526 217.633 127.96 218 128.468 218.217C128.976 218.435 129.534 218.492 130.073 218.383C130.613 218.274 131.109 218.003 131.499 217.604L214.338 132.154C214.729 131.754 214.995 131.242 215.103 130.686C215.212 130.129 215.158 129.551 214.947 129.026C214.737 128.501 214.38 128.053 213.923 127.737C213.465 127.421 212.926 127.253 212.376 127.254H177.21C176.842 127.257 176.479 127.336 176.14 127.485C175.802 127.634 175.496 127.851 175.239 128.123L127.566 177.299C127.05 177.829 126.757 178.546 126.749 179.297Z" fill="#2484C6"/>
</g>
<defs>
<clipPath id="clip0_393_3258">
<rect width="202.655" height="209.893" fill="white" transform="translate(12.5015 8.55359)"/>
</clipPath>
</defs>
</svg>
