<svg width="227" height="227" viewBox="0 0 227 227" fill="none" xmlns="http://www.w3.org/2000/svg">
<g clip-path="url(#clip0_393_3259)">
<path d="M199.899 154.577C199.859 157.596 199.816 160.617 199.769 163.64L199.822 163.581H190.818V172.461H199.846L199.792 172.402L199.686 181.43H190.812V190.623H199.657V181.424H208.856V190.694H226.965V226.971H154.523V218.013H172.579V209.039H190.594V199.899H181.672V190.841H172.626V199.84H154.4L154.441 199.887V190.847H145.26V199.899L145.301 199.857H136.12L136.161 199.899V190.835H127.186V199.84H118.152V199.887V190.83H109.001V199.899L109.036 199.857H99.8077V190.853H81.5692V209.027L81.6046 208.98H72.7182V172.42H81.5987V181.542H90.6325V172.449H81.5633C81.5633 169.501 81.5633 166.553 81.5633 163.604H90.6678V154.494H81.5987V163.634H72.6416V154.494H54.4974V145.295L54.4502 145.342H63.6373V136.155V136.202H72.5885V145.283H99.8726V154.441H109.071V163.522H99.9787V181.542H127.18V172.65H136.244V181.53H145.218V163.463H136.108V154.494H108.983V145.372H136.155V127.015L136.114 127.057H154.341V145.207H172.55V136.214H163.628V127.133H172.567V118.164H181.583V127.009H190.723V118.164H199.751V136.149H190.847V154.612H199.946L199.899 154.577ZM181.524 154.529H154.494V181.542H181.536L181.524 154.529ZM199.899 217.913H217.96V199.969H208.873V208.986H199.899V217.913Z" fill="white"/>
<path d="M63.4251 63.3956H0.0412598V0.0354004H63.4251V63.3956ZM54.3972 54.3619V9.04558H9.1281V54.3619H54.3972Z" fill="white"/>
<path d="M63.431 227.024H0.029541V163.616H63.431V227.024ZM9.0869 217.872H54.3796V172.62H9.0869V217.872Z" fill="white"/>
<path d="M227.024 0.0352783V63.3719H163.61V0.0352783H227.024ZM217.949 54.3499V9.03367H172.715V54.3499H217.949Z" fill="white"/>
<path d="M36.1586 136.155V145.26H27.1838V154.294H8.98066V109.172L8.95117 109.213H17.9555V90.8095H9.21652V81.4927H18.0616V72.6476H63.6137V81.6106L63.655 81.5693H45.3103V90.8095L45.3516 90.7623H36.1704V81.7344H27.2428V108.859H36.253V99.9376H45.3516L45.3103 99.9022V118.04H36.1645V127.051L36.2117 127.015H27.0777V118.17H18.15V136.214H36.2117L36.1586 136.155Z" fill="white"/>
<path d="M145.266 81.6636H154.394V90.7681H163.492V109.195H172.839V117.934H154.459V109.007H136.261V99.908H118.094V90.9037H109.178V81.752H90.8095V90.6384H81.4456V72.5944H99.8374V63.6019H108.93V72.5296H127.074V90.715H145.283V81.6164L145.266 81.6636Z" fill="white"/>
<path d="M109.007 17.9613H117.993V27.0187H136.114V9.08679H145.23V27.0659H154.293V63.4132H145.319V54.4502H135.996C135.996 51.2837 135.996 48.2764 135.996 45.269H145.177V36.3119H136.037V45.2985H127.192V36.306H118.141V45.4047L118.182 45.3693H108.995L109.042 45.4106V17.9201L109.007 17.9613Z" fill="white"/>
<path d="M99.8963 45.3458H81.7639V72.4353H72.7419V17.9673H81.587V17.9202V27.007H90.7741V17.9261L90.7328 17.9673H99.914L99.8727 17.932V45.4048L99.8963 45.3458Z" fill="white"/>
<path d="M209.062 81.5457H217.996V90.721H226.977V117.976H218.179V127.068H226.965V145.207H218.12V136.273H209.027V118.094H199.958V109.03H217.949V99.914H209.104C209.104 93.6458 209.104 87.5781 209.104 81.5162L209.062 81.5457Z" fill="white"/>
<path d="M172.845 109.195V81.6931H163.628V72.677H209.033V81.5516L209.074 81.5162H181.707V99.9493H190.694L190.658 99.9139V117.934H181.672V109.195H172.827H172.845Z" fill="white"/>
<path d="M136.155 127.015H127.198V136.079H118.135V127.169H109.089V118.111H100.002V90.9097H109.184V108.954H136.12V127.051L136.155 127.015Z" fill="white"/>
<path d="M109.001 208.991V217.972H127.009V226.959H72.7241V218.037H81.6046V208.98L81.5692 209.027H109.042L109.001 208.991Z" fill="white"/>
<path d="M154.4 199.84V217.89H127.275V199.899H136.155L136.114 199.857V208.885H145.295V199.846L145.254 199.887H154.435L154.4 199.84Z" fill="white"/>
<path d="M145.307 81.6165H136.214V72.6063H127.287V54.527H136.132V63.4546H145.266V81.6578L145.307 81.6165Z" fill="white"/>
<path d="M63.7495 109.201V99.9435H72.5297V90.668H81.4515C81.4515 96.8517 81.4515 103.039 81.4515 109.231H63.7613L63.7495 109.201Z" fill="white"/>
<path d="M199.793 163.64H226.977V172.402H199.793L199.846 172.461V163.581L199.793 163.64Z" fill="white"/>
<path d="M81.7639 136.084V127.169H99.7902V136.084H81.7639Z" fill="white"/>
<path d="M63.596 90.7564V99.9022H45.3162L45.3574 99.9376V90.7505L45.3162 90.7977H63.6432L63.596 90.7564Z" fill="white"/>
<path d="M190.694 99.9493V90.892H199.757V99.9139H190.659L190.694 99.9493Z" fill="white"/>
<path d="M45.3517 136.155H36.1587L36.2118 136.202V127.015L36.1646 127.051H45.3517L45.3104 127.009V136.214L45.3517 136.155Z" fill="white"/>
<path d="M8.9807 109.172H0V99.967H8.95711C8.95711 103.063 8.95711 106.135 8.95711 109.207C8.95121 109.213 8.9807 109.172 8.9807 109.172Z" fill="white"/>
<path d="M54.4976 145.295H45.3518V136.155L45.3105 136.197H54.4917L54.4505 136.155V145.342L54.4976 145.295Z" fill="white"/>
<path d="M199.946 154.612V145.425H208.879V154.571H199.898L199.946 154.612Z" fill="white"/>
<path d="M100.014 54.6625C99.971 51.5608 99.9316 48.4552 99.8963 45.3457L99.855 45.3929H109.042L108.995 45.3516C108.995 48.41 108.995 51.4704 108.995 54.5328L109.03 54.4974L99.9965 54.6448L100.014 54.6625Z" fill="white"/>
<path d="M9.21662 81.4926H0.029541V72.6947H9.21662V81.4926Z" fill="white"/>
<path d="M118.152 199.84V208.991H109.001L109.042 209.027C109.042 205.968 109.042 202.908 109.042 199.846L109.007 199.887H118.188L118.152 199.84Z" fill="white"/>
<path d="M54.4561 127.057H63.6078V136.214V136.167H54.4502L54.4915 136.208V127.015L54.4561 127.057Z" fill="white"/>
<path d="M63.5962 81.6519H72.4884V90.7564H63.5962L63.6375 90.7977V81.6106L63.5962 81.6519Z" fill="white"/>
<path d="M154.323 8.84507H145.389V0.05896H154.323V8.84507Z" fill="white"/>
<path d="M81.5988 17.9672V9.08679H90.7151V17.9672L90.7564 17.926H81.5693L81.5988 17.9672Z" fill="white"/>
<path d="M109.042 8.84507V0.05896H117.987V8.84507H109.042Z" fill="white"/>
<path d="M99.8963 17.9614V9.07507H109.007V17.9614L109.042 17.9201H99.855L99.8963 17.9614Z" fill="white"/>
<path d="M45.3518 127.057V118.158H54.4564V127.057L54.4976 127.015H45.3105L45.3518 127.057Z" fill="white"/>
<path d="M90.8389 8.87459V0.0531006H99.7842V8.89818L90.8389 8.87459Z" fill="white"/>
<path d="M81.4573 109.201H90.6385V117.934H81.4573V109.201Z" fill="white"/>
<path d="M63.7493 109.189V117.934H54.5623V109.201H63.7493V109.189Z" fill="white"/>
<path d="M118.141 45.4048H127.027V54.4916H118.182L118.217 54.5388C118.217 51.4803 118.217 48.418 118.217 45.3517L118.141 45.4048Z" fill="white"/>
<path d="M118.152 54.4916V63.372H109.036V54.527L109.001 54.5623H118.188L118.152 54.4916Z" fill="white"/>
<path d="M100.002 54.6449V63.3838H90.8743C90.8743 60.4787 90.8743 57.5716 90.8743 54.6626H100.02L100.002 54.6449Z" fill="white"/>
<path d="M127.263 0H136.108V8.84507H127.263V0Z" fill="white"/>
<path d="M72.73 118.105H81.5338V126.95H72.73V118.105Z" fill="white"/>
<path d="M172.526 172.455H163.634V163.61H172.526V172.455Z" fill="white"/>
<path d="M18.1619 45.2455V18.1619H45.2868V45.2455H18.1619Z" fill="white"/>
<path d="M45.2454 208.885H18.1736V181.707H45.2454V208.885Z" fill="white"/>
<path d="M181.755 18.1089H208.88V45.2751H181.755V18.1089Z" fill="white"/>
</g>
<defs>
<clipPath id="clip0_393_3259">
<rect width="227" height="227" fill="white"/>
</clipPath>
</defs>
</svg>
