<svg width="138" height="166" viewBox="0 0 138 166" fill="none" xmlns="http://www.w3.org/2000/svg">
<path d="M68.8359 165.04C64.9678 165.04 61.1236 164.133 57.6614 162.414L14.348 140.757C5.84763 136.483 0.546875 127.935 0.546875 118.408V25.43C0.546875 11.6528 11.7453 0.454315 25.5225 0.454315H112.125C125.903 0.454315 137.125 11.6528 137.125 25.43V118.408C137.125 127.935 131.824 136.483 123.324 140.757L80.0105 162.414C76.5483 164.133 72.6802 165.04 68.8359 165.04ZM25.5225 3.79714C13.5839 3.79714 3.8897 13.4913 3.8897 25.43V118.408C3.8897 126.67 8.47414 134.072 15.8522 137.773L59.1656 159.429C65.1588 162.414 72.5369 162.414 78.5301 159.429L121.844 137.773C129.222 134.072 133.806 126.67 133.806 118.408V25.43C133.806 13.4913 124.088 3.77326 112.149 3.77326H25.5225V3.79714Z" fill="#2484C6"/>
<path d="M8.88477 25.4299V118.408C8.88477 124.712 12.4425 130.49 18.1014 133.307L61.3909 154.94C66.0709 157.28 71.6104 157.28 76.2904 154.94L119.604 133.284C125.239 130.466 128.82 124.688 128.82 118.384V25.4299C128.82 16.2371 121.371 8.76352 112.154 8.76352H25.5272C16.3345 8.7874 8.88477 16.2371 8.88477 25.4299Z" fill="#2484C6"/>
<path d="M22.1992 103.723V115.304C22.1992 118.456 23.99 121.345 26.8075 122.754L67.3512 143.025C67.8287 143.264 68.3302 143.384 68.8316 143.384C69.3569 143.384 69.8583 143.264 70.312 143.025L110.856 122.754C113.673 121.345 115.464 118.456 115.464 115.304V103.7C115.464 100.93 113.219 98.7092 110.474 98.7092H27.1896C24.4198 98.7092 22.1992 100.954 22.1992 103.723Z" fill="white"/>
<path d="M42.5243 73.2334C40.2927 73.2743 38.2575 72.9034 36.4189 72.1209C34.5803 71.3384 33.1192 70.201 32.0358 68.7085C30.9527 67.2401 30.3932 65.522 30.3572 63.5544C30.3124 61.1068 30.9568 58.9346 32.2903 57.0379C33.6479 55.1408 35.5999 53.5928 38.1464 52.394C40.6924 51.1713 43.7261 50.3596 47.2474 49.9592C46.9808 49.82 46.6044 49.5869 46.1184 49.2597C44.4416 48.1382 43.0464 47.3236 41.933 46.8158C40.8195 46.3081 39.7226 46.0521 38.6424 46.0479C37.659 46.0899 36.7646 46.4063 35.9593 46.9971C35.178 47.5875 34.6021 48.2582 34.2318 49.0091L31.8986 47.4315C32.6841 45.7608 33.6451 44.495 34.7816 43.6341C35.9416 42.7487 37.2417 42.3049 38.6819 42.3025C40.0252 42.254 41.3265 42.5302 42.5857 43.1313C43.8689 43.7319 45.5681 44.769 47.6835 46.2426C48.8995 47.1085 49.8474 47.7512 50.5272 48.1709C51.2066 48.5665 51.9208 48.9015 52.6699 49.1758L52.3065 52.9271C51.3467 52.9447 50.639 52.9696 50.1835 53.002C50.6741 54.8893 52.1672 55.8101 54.6628 55.7645L55.2747 55.7533L55.5269 57.729L55.3471 59.7126L54.7352 59.7238C52.5996 59.7629 50.8971 59.2059 49.6278 58.053C48.3825 56.8996 47.6812 55.3041 47.5239 53.2667C44.6741 53.6308 42.2139 54.3 40.1434 55.274C38.0724 56.224 36.4731 57.3695 35.3454 58.7103C34.2418 60.0507 33.644 61.4899 33.5521 63.0278C33.5265 64.2525 33.9064 65.3378 34.6919 66.2835C35.5017 67.2529 36.6316 68.0004 38.0814 68.5259C39.5553 69.051 41.2161 69.2967 43.0638 69.2629C44.9114 69.2291 46.5996 69.0062 48.1284 68.5942C49.6815 68.2057 50.8867 67.8236 51.744 67.4478L53.1677 70.4823C52.218 71.0518 50.8605 71.6407 49.0954 72.2491C47.3542 72.857 45.1638 73.1852 42.5243 73.2334ZM58.2071 55.6997C58.9259 54.3183 59.6823 53.0202 60.4762 51.8055C60.5049 50.7488 60.5126 49.8605 60.4995 49.1406C60.4565 46.789 60.2878 44.1277 59.9934 41.1565C59.7225 38.161 59.4679 36.0533 59.2296 34.8335L62.6345 33.979C62.848 35.1513 63.0598 36.8877 63.2699 39.1883C63.5036 41.4644 63.6413 43.7423 63.683 46.0219L63.6799 47.8222C66.3196 45.1575 68.9592 43.801 71.5988 43.7527C72.8946 43.729 74.0634 43.9837 75.1053 44.5167C76.1713 45.0493 77.0132 45.802 77.6311 46.7749C78.2485 47.7237 78.5687 48.8221 78.5915 50.0699C78.6293 52.1335 77.8468 53.9721 76.244 55.5857C78.161 55.4066 79.4675 55.3107 80.1634 55.298L80.4156 57.2737L80.2358 59.2573C76.0365 59.3341 72.936 59.1148 70.9342 58.5993C69.0247 59.1864 66.9541 59.5003 64.7224 59.5411L54.9681 59.7196L54.8956 55.7602L58.2071 55.6997ZM61.6985 55.6358C62.2028 55.6506 63.0789 55.6465 64.3267 55.6237C66.5343 55.5833 68.4854 55.2956 70.1799 54.7605C71.8984 54.225 73.2181 53.5407 74.139 52.7077C75.0839 51.8743 75.548 51.0017 75.5314 50.0898C75.5177 49.346 75.1944 48.7278 74.5613 48.2353C73.9522 47.7423 73.1077 47.5057 72.0279 47.5255C70.3481 47.5562 68.5972 48.2844 66.7749 49.7099C64.9767 51.1351 63.2846 53.1103 61.6985 55.6358ZM100.045 58.8949C98.8444 58.8929 97.8428 58.5992 97.04 58.0137C96.2607 57.4039 95.693 56.5501 95.3369 55.4525C94.7807 56.5428 94.0766 57.4198 93.2246 58.0835C92.3962 58.7228 91.478 59.0516 90.4702 59.0701L90.3262 59.0727C89.2464 59.0925 88.3289 58.7972 87.5736 58.1869C86.8183 57.5766 86.335 56.7453 86.1237 55.693C84.5821 58.0256 82.5995 59.2141 80.1759 59.2584L80.032 59.261L79.7798 57.2853L79.9595 55.3017L80.1395 55.2984C81.0033 55.2826 81.8037 55.0759 82.5406 54.6784C83.3014 54.2804 83.8803 53.7777 84.2773 53.1704C84.7458 52.5377 85.1052 51.847 85.3555 51.0983C85.6299 50.3492 85.8671 49.5407 86.0673 48.6729L89.0967 48.9415C89.0749 49.0619 88.9519 49.5563 88.7278 50.4245C88.5036 51.2928 88.3986 52.1108 88.4126 52.8787C88.4262 53.6226 88.5805 54.1838 88.8755 54.5625C89.1945 54.9407 89.6779 55.1239 90.3258 55.1121L90.3978 55.1107C91.0937 55.098 91.702 54.8949 92.2229 54.5013C92.7434 54.0837 93.2125 53.487 93.6304 52.7112C94.1403 51.7177 94.5208 50.2105 94.7719 48.1896L97.798 48.2782C97.5377 49.7953 97.4155 50.9857 97.4313 51.8495C97.4502 52.8814 97.6684 53.6575 98.086 54.178C98.5036 54.6984 99.1563 54.9505 100.044 54.9343C100.884 54.9189 101.516 54.6793 101.939 54.2155C102.362 53.7277 102.566 53.0518 102.55 52.188C102.536 51.4201 102.276 50.3327 101.771 48.9257C101.288 47.4943 100.86 46.3739 100.485 45.5646L103.371 43.8916C103.87 44.9146 104.374 46.2376 104.884 47.8606C105.417 49.4831 105.696 50.9302 105.719 52.202C105.741 53.4018 105.521 54.51 105.06 55.5266C104.598 56.5432 103.941 57.3594 103.088 57.9751C102.235 58.5668 101.268 58.8725 100.189 58.8923L100.045 58.8949Z" fill="white"/>
<path d="M73.9128 121.381H77.2608V124.441H73.9128V130.273H70.1328V124.441H58.8288L58.7568 122.173L69.9528 104.677H73.9128V121.381ZM70.1328 121.381V109.789L69.7368 110.473L62.8248 121.381H70.1328Z" fill="black"/>
</svg>
