<svg width="137" height="165" viewBox="0 0 137 165" fill="none" xmlns="http://www.w3.org/2000/svg">
<path d="M68.3613 164.744C64.4932 164.744 60.649 163.836 57.1868 162.117L13.8733 140.461C5.37302 136.187 0.0722656 127.638 0.0722656 118.111V25.1332C0.0722656 11.356 11.2707 0.157593 25.0479 0.157593H111.651C125.428 0.157593 136.65 11.356 136.65 25.1332V118.111C136.65 127.638 131.35 136.187 122.849 140.461L79.5359 162.117C76.0737 163.836 72.2056 164.744 68.3613 164.744ZM25.0479 3.50041C13.1093 3.50041 3.41509 13.1946 3.41509 25.1332V118.111C3.41509 126.373 7.99953 133.775 15.3776 137.476L58.691 159.133C64.6842 162.117 72.0623 162.117 78.0555 159.133L121.369 137.476C128.747 133.775 133.331 126.373 133.331 118.111V25.1332C133.331 13.1946 123.613 3.47654 111.675 3.47654H25.0479V3.50041Z" fill="#4583AD"/>
<path d="M8.41211 25.1332V118.111C8.41211 124.415 11.9698 130.193 17.6287 133.011L60.9183 154.644C65.5982 156.984 71.1378 156.984 75.8177 154.644L119.131 132.987C124.766 130.169 128.348 124.391 128.348 118.088V25.1332C128.348 15.9405 120.898 8.46687 111.681 8.46687H25.0546C15.8618 8.49075 8.41211 15.9405 8.41211 25.1332Z" fill="#4583AD"/>
<path d="M21.7246 103.427V115.007C21.7246 118.159 23.5154 121.048 26.3329 122.457L66.8766 142.729C67.3541 142.968 67.8555 143.087 68.357 143.087C68.8823 143.087 69.3837 142.968 69.8374 142.729L110.381 122.457C113.199 121.048 114.989 118.159 114.989 115.007V103.403C114.989 100.633 112.745 98.4125 109.999 98.4125H26.715C23.9452 98.4125 21.7246 100.657 21.7246 103.427Z" fill="white" fill-opacity="0.7"/>
<g opacity="0.7">
<path d="M41.1549 73.1632C38.9229 73.1719 36.8934 72.7717 35.0662 71.9628C33.2391 71.1539 31.7946 69.9955 30.7327 68.4876C29.6709 67.0037 29.1362 65.2778 29.1286 63.3098C29.1191 60.8618 29.7947 58.6992 31.1554 56.8219C32.5401 54.9445 34.5142 53.4248 37.0777 52.2629C39.6412 51.0769 42.6862 50.3091 46.2129 49.9594C45.9483 49.8164 45.5754 49.5779 45.0941 49.2437C43.4336 48.0982 42.0504 47.2635 40.9443 46.7398C39.8383 46.2161 38.7452 45.9443 37.6651 45.9245C36.6812 45.9524 35.7824 46.2558 34.9687 46.835C34.1789 47.4141 33.5935 48.0764 33.2124 48.8218L30.9021 47.2108C31.7117 45.5516 32.6908 44.2998 33.8395 43.4554C35.0122 42.5868 36.3185 42.1617 37.7586 42.1801C39.1025 42.1509 40.3997 42.4459 41.6501 43.065C42.9245 43.6841 44.6086 44.7456 46.7025 46.2494C47.9059 47.1328 48.8445 47.7891 49.5181 48.2185C50.1917 48.6239 50.9011 48.9692 51.6462 49.2543L51.2287 52.9999C50.2687 53.0037 49.5608 53.0184 49.1049 53.0442C49.5682 54.9384 51.0479 55.8807 53.5439 55.871L54.1559 55.8686L54.3796 57.8477L54.1713 59.8286L53.5593 59.8309C51.4233 59.8392 49.729 59.2578 48.4764 58.0867C47.2479 56.9154 46.5697 55.31 46.4417 53.2705C43.587 53.5936 41.1174 54.2272 39.0331 55.1713C36.9486 56.0914 35.333 57.2137 34.1861 58.5381C33.0632 59.8625 32.4448 61.2929 32.3307 62.8294C32.2875 64.0536 32.6517 65.1441 33.4235 66.1012C34.2193 67.0821 35.3382 67.8457 36.7804 68.3921C38.2465 68.9385 39.9036 69.208 41.7515 69.2008C43.5995 69.1937 45.2908 68.9951 46.8253 68.6051C48.3839 68.2391 49.5945 67.8744 50.4571 67.511L51.8369 70.5657C50.8791 71.1214 49.5133 71.6907 47.7395 72.2736C45.9898 72.8564 43.7949 73.1529 41.1549 73.1632ZM57.0887 55.8572C57.8274 54.4863 58.6024 53.1993 59.4138 51.9961C59.4577 50.94 59.4782 50.0519 59.4754 49.3319C59.4663 46.9799 59.3359 44.3164 59.0844 41.3413C58.8567 38.3422 58.6325 36.2311 58.4118 35.0079L61.8287 34.2026C62.0253 35.3779 62.212 37.1172 62.389 39.4205C62.5898 41.6997 62.6947 43.9793 62.7035 46.2593L62.6745 48.0594C65.3523 45.433 68.0112 44.1147 70.6512 44.1044C71.9472 44.0994 73.1123 44.3709 74.1464 44.9189C75.2045 45.4668 76.0355 46.2316 76.6393 47.2132C77.243 48.1709 77.5473 49.2737 77.5522 50.5217C77.5602 52.5857 76.7513 54.4128 75.1254 56.0032C77.0449 55.8517 78.3526 55.7746 79.0486 55.7719L79.2723 57.7511L79.0639 59.7319C74.864 59.7482 71.7669 59.4842 69.7728 58.94C67.855 59.4994 65.78 59.7835 63.5481 59.7921L53.7921 59.83L53.7768 55.8701L57.0887 55.8572ZM60.5807 55.8436C61.0848 55.8657 61.9608 55.8743 63.2088 55.8694C65.4168 55.8609 67.3718 55.6013 69.0738 55.0907C70.7999 54.58 72.1293 53.9148 73.0621 53.0952C74.019 52.2754 74.4956 51.4096 74.4921 50.4976C74.4892 49.7536 74.1747 49.1308 73.5488 48.6292C72.9468 48.1276 72.1059 47.8788 71.0259 47.883C69.3459 47.8895 67.5846 48.5924 65.742 49.9916C63.9234 51.3906 62.203 53.3413 60.5807 55.8436ZM98.8759 59.655C97.6758 59.6356 96.6786 59.3275 95.8843 58.7306C95.1139 58.1096 94.5585 57.2477 94.2182 56.145C93.6464 57.2273 92.9298 58.0941 92.0683 58.7454C91.2307 59.3727 90.308 59.6882 89.3 59.6922L89.156 59.6927C88.076 59.6969 87.1628 59.3885 86.4163 58.7673C85.6699 58.1462 85.1987 57.3081 85.0026 56.2528C83.4275 58.563 81.428 59.7227 79.004 59.7321L78.86 59.7327L78.6364 57.7535L78.8447 55.7727L79.0247 55.772C79.8887 55.7687 80.6919 55.5736 81.4344 55.1867C82.2009 54.7997 82.787 54.3054 83.1927 53.7038C83.6702 53.078 84.0396 52.3925 84.3007 51.6475C84.5858 50.9024 84.8347 50.0974 85.0473 49.2326L88.0726 49.5448C88.049 49.6649 87.9189 50.1574 87.6823 51.0224C87.4456 51.8873 87.3288 52.7038 87.3318 53.4718C87.3347 54.2157 87.4809 54.7792 87.7704 55.1621C88.0838 55.5448 88.5646 55.735 89.2126 55.7325L89.2846 55.7322C89.9806 55.7295 90.5918 55.5351 91.1183 55.1491C91.6447 54.739 92.1225 54.1492 92.5515 53.3795C93.0756 52.3934 93.4778 50.8919 93.758 48.8748L96.7825 49.007C96.5004 50.5201 96.361 51.7087 96.3644 52.5727C96.3684 53.6047 96.5754 54.3839 96.9855 54.9103C97.3955 55.4367 98.0445 55.6982 98.9325 55.6947C99.7725 55.6915 100.408 55.461 100.838 55.0033C101.268 54.5217 101.481 53.8488 101.478 52.9848C101.475 52.2168 101.231 51.1258 100.745 49.7116C100.284 48.2734 99.8713 47.147 99.5082 46.3324L102.418 44.7011C102.902 45.7312 103.387 47.0614 103.873 48.6915C104.384 50.3215 104.641 51.7725 104.646 53.0445C104.651 54.2445 104.415 55.3494 103.939 56.3593C103.463 57.3692 102.794 58.1758 101.933 58.7791C101.071 59.3585 100.1 59.6502 99.0199 59.6544L98.8759 59.655Z" fill="white"/>
<path d="M76.3162 129.977H59.3242V127.349L68.0362 117.737C69.2842 116.321 70.1602 115.145 70.6642 114.209C71.1682 113.273 71.4202 112.337 71.4202 111.401C71.4202 110.105 71.0482 109.061 70.3042 108.269C69.5602 107.477 68.5642 107.081 67.3162 107.081C65.8522 107.081 64.7002 107.525 63.8602 108.413C63.0442 109.301 62.6362 110.525 62.6362 112.085H58.8202C58.8202 110.549 59.1562 109.169 59.8282 107.945C60.5242 106.721 61.5082 105.761 62.7802 105.065C64.0762 104.369 65.5762 104.021 67.2802 104.021C69.7522 104.021 71.6962 104.645 73.1122 105.893C74.5282 107.141 75.2362 108.845 75.2362 111.005C75.2362 112.277 74.8162 113.657 73.9762 115.145C73.1602 116.633 71.8882 118.325 70.1602 120.221L64.0042 126.917H76.3162V129.977Z" fill="black"/>
</g>
</svg>
