<svg xmlns="http://www.w3.org/2000/svg" width="30" height="30" viewBox="0 0 30 30">
  <g id="law_1_" data-name="law (1)" transform="translate(-23.946 -24)">
    <path id="Path_7485" data-name="Path 7485" d="M59.241,106.054H57.187a2.054,2.054,0,0,0-1.643.821l-.924,1.232H52.053l-.77,1.54h-1.54a1.8,1.8,0,0,1,0-3.594h3.85l.462-.616A3.594,3.594,0,0,1,56.93,104h2.31Z" transform="translate(-22.46 -74.819)" fill="#f7c04a"/>
    <path id="Path_7486" data-name="Path 7486" d="M74.513,161.027H72.459a.513.513,0,0,1,0-1.027h2.054a.513.513,0,1,1,0,1.027Z" transform="translate(-44.92 -127.205)" fill="#f5a431"/>
    <path id="Path_7487" data-name="Path 7487" d="M107.062,440h13.5a3.1,3.1,0,0,1,3.116,3.08H103.946A3.1,3.1,0,0,1,107.062,440Z" transform="translate(-74.866 -389.08)" fill="#f7c04a"/>
    <path id="Path_7488" data-name="Path 7488" d="M193.187,410.054l-.459-.918A2.053,2.053,0,0,0,190.891,408h-4.649a2.054,2.054,0,0,0-1.837,1.135l-.459.918Z" transform="translate(-149.621 -359.134)" fill="#f5a431"/>
    <path id="Path_7489" data-name="Path 7489" d="M227.026,144v15.4l1.027,1.54h-4.107l1.027-1.54V144Z" transform="translate(-187.054 -112.165)" fill="#f7c04a"/>
    <path id="Path_7490" data-name="Path 7490" d="M224.973,80h2.054a1.027,1.027,0,0,1,1.027,1.027v3.08h-4.107v-3.08A1.027,1.027,0,0,1,224.973,80Z" transform="translate(-187.054 -52.406)" fill="#f5a431"/>
    <path id="Path_7491" data-name="Path 7491" d="M239.946,27.594V25.027a1.027,1.027,0,1,1,2.054,0v2.567Z" transform="translate(-202.027)" fill="#f7c04a"/>
    <path id="Path_7492" data-name="Path 7492" d="M49.005,168.958l-3.648-7.3-3.648,7.3-.918-.459,4.107-8.214a.513.513,0,0,1,.918,0l4.107,8.214Z" transform="translate(-15.764 -127.179)" fill="#f5a431"/>
    <path id="Path_7493" data-name="Path 7493" d="M23.946,280H35.241v1.027a3.594,3.594,0,0,1-3.594,3.594H27.54a3.594,3.594,0,0,1-3.594-3.594Z" transform="translate(0 -239.426)" fill="#f7c04a"/>
    <path id="Path_7494" data-name="Path 7494" d="M287.946,106.054H290a2.054,2.054,0,0,1,1.643.821l.924,1.232h2.567l.77,1.54h1.54a1.8,1.8,0,1,0,0-3.594h-3.85l-.462-.616A3.594,3.594,0,0,0,290.256,104h-2.31Z" transform="translate(-246.835 -74.819)" fill="#f7c04a"/>
    <path id="Path_7495" data-name="Path 7495" d="M392.459,161.027h2.054a.513.513,0,1,0,0-1.027h-2.054a.513.513,0,1,0,0,1.027Z" transform="translate(-344.161 -127.205)" fill="#f5a431"/>
    <path id="Path_7496" data-name="Path 7496" d="M329.709,168.958l3.648-7.3,3.648,7.3.918-.459-4.107-8.214a.513.513,0,0,0-.918,0L328.79,168.5Z" transform="translate(-285.058 -127.179)" fill="#f5a431"/>
    <path id="Path_7497" data-name="Path 7497" d="M3.594,0H7.7a3.594,3.594,0,0,1,3.594,3.594V4.621H0V3.594A3.594,3.594,0,0,1,3.594,0Z" transform="translate(53.946 45.195) rotate(180)" fill="#f7c04a"/>
  </g>
</svg>
