<svg xmlns="http://www.w3.org/2000/svg" width="22.521" height="30" viewBox="0 0 22.521 30">
  <g id="delete" transform="translate(-63.817)">
    <g id="Group_888" data-name="Group 888" transform="translate(63.818 0)">
      <path id="Path_7537" data-name="Path 7537" d="M310.871,84.5l-5.686,1.677a1.51,1.51,0,0,0-1.013,1.425V90.15a.905.905,0,0,0,.905.905h6.882a.905.905,0,0,0,.905-.905V85.929A1.51,1.51,0,0,0,310.871,84.5Z" transform="translate(-290.343 -79.513)" fill="#ff5e94"/>
      <path id="Path_7538" data-name="Path 7538" d="M160.161,164.371v17.06a3.928,3.928,0,0,0,3.924,3.924h9.538a3.928,3.928,0,0,0,3.924-3.924v-17.06Z" transform="translate(-155.025 -155.354)" fill="#9dcfff"/>
      <path id="Path_7539" data-name="Path 7539" d="M304.172,164.371v20.983h4.769a3.928,3.928,0,0,0,3.924-3.924v-17.06Z" transform="translate(-290.343 -155.354)" fill="#72bbff"/>
      <g id="Group_886" data-name="Group 886" transform="translate(9.199 13.182)">
        <path id="Path_7540" data-name="Path 7540" d="M223.335,233.376a.905.905,0,0,0-.905.905v10.842a.905.905,0,0,0,1.811,0V234.281A.906.906,0,0,0,223.335,233.376Z" transform="translate(-222.43 -233.376)" fill="#5a5a5a"/>
        <path id="Path_7541" data-name="Path 7541" d="M290.075,233.376a.905.905,0,0,0-.905.905v10.842a.905.905,0,1,0,1.811,0V234.281A.905.905,0,0,0,290.075,233.376Z" transform="translate(-285.141 -233.376)" fill="#5a5a5a"/>
      </g>
      <g id="Group_887" data-name="Group 887" transform="translate(13.968 13.182)">
        <path id="Path_7542" data-name="Path 7542" d="M305.076,234.286v10.842a.906.906,0,0,1-.905.905V233.38A.905.905,0,0,1,305.076,234.286Z" transform="translate(-304.171 -233.38)" fill="#444"/>
        <path id="Path_7543" data-name="Path 7543" d="M356.816,233.376a.905.905,0,0,0-.905.905v10.842a.905.905,0,1,0,1.811,0V234.281A.905.905,0,0,0,356.816,233.376Z" transform="translate(-352.788 -233.376)" fill="#444"/>
      </g>
      <path id="Path_7544" data-name="Path 7544" d="M82.862,12.4h0a2.42,2.42,0,0,0-2.985.341h0L78.211,14.4l-1.665,1.665a2.417,2.417,0,0,0,0,3.415l.854.854,1.226-.127.054-1.154-.854-.854a.6.6,0,0,1,0-.854l1.665-1.665,1.664-1.665h0a.6.6,0,0,1,.853,0l.854.854,1.12-.186.161-1.094a7.733,7.733,0,0,0-1.283-1.2Z" transform="translate(-75.114 -11.306)" fill="#5a5a5a"/>
      <path id="Path_7545" data-name="Path 7545" d="M119.771,12.4h0a2.419,2.419,0,0,0-2.985.342L115.12,14.4l1.281,1.281,1.665-1.665a.6.6,0,0,1,.853,0l.854.854,1.281-1.28a7.61,7.61,0,0,0-1.283-1.2Z" transform="translate(-112.023 -11.306)" fill="#444"/>
      <path id="Path_7546" data-name="Path 7546" d="M79.125,2.241,77.5.619a2.115,2.115,0,0,0-2.988,0L64.436,10.7a2.115,2.115,0,0,0,0,2.988l1.622,1.622a.905.905,0,0,0,1.281,0L79.125,3.521a.905.905,0,0,0,0-1.281Z" transform="translate(-63.818 -0.001)" fill="#3ba9ff"/>
      <path id="Path_7547" data-name="Path 7547" d="M165.578.618,167.2,2.24a.905.905,0,0,1,0,1.281l-5.894,5.894L157.55,5.658l5.04-5.04a2.115,2.115,0,0,1,2.988,0Z" transform="translate(-152.182 0)" fill="#0081ff"/>
    </g>
  </g>
</svg>
