<svg width="90" height="90" viewBox="0 0 90 90" fill="none" xmlns="http://www.w3.org/2000/svg">
<path d="M45 0C20.1469 0 0 20.1469 0 45C0 69.8531 20.1469 90 45 90C69.8531 90 90 69.8531 90 45C90 20.1469 69.8531 0 45 0ZM63.3047 36.8625C63.3234 37.2469 63.3281 37.6313 63.3281 38.0063C63.3281 49.725 54.4172 63.2297 38.1141 63.2297C33.2967 63.2377 28.5795 61.8541 24.5297 59.2453C25.2188 59.3297 25.9266 59.3625 26.6437 59.3625C30.7969 59.3625 34.6172 57.9516 37.65 55.5703C35.8018 55.534 34.011 54.922 32.5271 53.8196C31.0432 52.7172 29.9402 51.1793 29.3719 49.4203C30.6992 49.6727 32.0665 49.6198 33.3703 49.2656C31.3643 48.86 29.5603 47.773 28.2643 46.1891C26.9682 44.6051 26.2599 42.6216 26.2594 40.575V40.4672C27.4547 41.1281 28.8234 41.5313 30.2766 41.5781C28.3959 40.3262 27.0646 38.4031 26.5549 36.2022C26.0452 34.0012 26.3956 31.6887 27.5344 29.7375C29.7607 32.475 32.5372 34.7144 35.6839 36.3108C38.8307 37.9072 42.2776 38.825 45.8016 39.0047C45.3535 37.103 45.5464 35.1066 46.35 33.3258C47.1537 31.545 48.5232 30.0796 50.2456 29.1575C51.9681 28.2353 53.9469 27.9081 55.8745 28.2266C57.8021 28.5451 59.5705 29.4915 60.9047 30.9187C62.8883 30.5263 64.7905 29.7987 66.5297 28.7672C65.8686 30.8209 64.4844 32.5649 62.6344 33.675C64.3915 33.4634 66.1072 32.991 67.725 32.2734C66.5367 34.0542 65.0397 35.6083 63.3047 36.8625Z" fill="#2484C6"/>
</svg>
