<svg width="130" height="130" viewBox="0 0 130 130" fill="none" xmlns="http://www.w3.org/2000/svg">
        <circle cx="65" cy="65" r="65" fill="url(#paint0_radial_339_1768)" />
        <path
          d="M40.3554 45.8398C42.038 44.9139 44.2015 44.9139 46.1245 45.8398L59.5858 53.4777L68.7203 58.3383L81.9412 65.9763C83.6238 66.9021 85.7873 66.9021 87.7103 65.9763L98.0467 59.9585C99.7293 59.0326 100.931 57.181 100.931 55.0979V43.5252C100.931 41.6736 99.9697 39.822 98.0467 38.6647L87.7103 32.8783C86.0276 31.9525 83.8642 31.9525 81.9412 32.8783L71.6048 38.8961C69.9222 39.822 68.7203 41.6736 68.7203 43.7567V51.3947L59.5858 46.3027V38.4332C59.5858 36.5816 60.5473 34.73 62.4704 33.5727L81.7008 22.6944C83.3835 21.7685 85.5469 21.7685 87.4699 22.6944L107.181 33.8042C109.104 34.73 110.066 36.5816 110.066 38.4332V60.1899C110.066 62.0415 109.104 63.8932 107.181 65.0504L87.7103 75.9288C86.0276 76.8546 83.8642 76.8546 81.9412 75.9288L68.7203 68.5223L59.5858 63.4303L46.3649 56.0237C44.6822 55.0979 42.5188 55.0979 40.5958 56.0237L30.2594 61.8101C28.5767 62.7359 27.3748 64.5875 27.3748 66.6706V78.2433C27.3748 80.095 28.3364 81.9466 30.2594 83.1039L40.3554 88.8902C42.038 89.816 44.2015 89.816 46.1245 88.8902L56.4609 83.1039C58.1435 82.178 59.3454 80.3264 59.3454 78.2433V70.8368L68.4799 75.9288V83.5668C68.4799 85.4184 67.5184 87.27 65.5953 88.4273L46.1245 99.3056C44.4418 100.231 42.2784 100.231 40.3554 99.3056L20.8846 88.4273C19.2019 87.5015 18 85.6498 18 83.5668V61.5786C18 59.727 18.9615 57.8754 20.8846 56.7181L40.3554 45.8398Z"
          fill="#8247E5"
        />
        <defs>
          <radialGradient
            id="paint0_radial_339_1768"
            cx="0"
            cy="0"
            r="1"
            gradientUnits="userSpaceOnUse"
            gradientTransform="translate(65 65) rotate(90) scale(65)"
          >
            <stop stop-color="#EFEFEF" stop-opacity="0.5" />
            <stop offset="1" stop-color="#EFEFEF" stop-opacity="0.1" />
          </radialGradient>
        </defs>
      </svg>
