<svg width="29" height="29" viewBox="0 0 29 29" fill="none" xmlns="http://www.w3.org/2000/svg">
<path d="M24.9586 18.0992L20.5055 25.3655C20.0165 26.1683 19.3508 26.8489 18.5591 27.3557C17.7674 27.8624 16.8705 28.1819 15.9368 28.2898C15.6907 28.3189 15.4432 28.3335 15.1954 28.3334C13.9268 28.3317 12.6898 27.9379 11.6537 27.206C10.583 28.0081 9.26041 28.4002 7.92552 28.3112C6.59064 28.2223 5.33179 27.6581 4.37706 26.7209C3.42232 25.7837 2.83486 24.5355 2.7211 23.2025C2.60735 21.8695 2.97483 20.5399 3.75697 19.4545L2.20454 17.9044C1.54165 17.2415 1.03734 16.4372 0.72938 15.5517C0.421416 14.6662 0.317778 13.7226 0.426228 12.7914C0.534679 11.8602 0.852407 10.9656 1.35562 10.1746C1.85883 9.38359 2.53448 8.7167 3.33197 8.22385L10.1402 4.01399C11.9845 2.83199 14.1534 2.25892 16.3408 2.37563C18.5282 2.49234 20.6238 3.29294 22.3318 4.66447L24.2904 2.70593C24.3993 2.59318 24.5295 2.50324 24.6736 2.44137C24.8176 2.3795 24.9725 2.34693 25.1293 2.34557C25.286 2.34421 25.4415 2.37408 25.5866 2.43343C25.7317 2.49279 25.8635 2.58045 25.9743 2.6913C26.0852 2.80215 26.1728 2.93396 26.2322 3.07904C26.2915 3.22413 26.3214 3.37958 26.32 3.53634C26.3187 3.69309 26.2861 3.848 26.2242 3.99204C26.1624 4.13607 26.0724 4.26634 25.9597 4.37524L24.0035 6.3326C25.3155 7.97622 26.1072 9.97393 26.2774 12.0701C26.4475 14.1663 25.9883 16.2655 24.9586 18.0992ZM9.85454 25.5556L5.46406 21.1639C5.12096 21.7775 4.98863 22.4867 5.08736 23.1828C5.1861 23.8788 5.51044 24.5233 6.01065 25.0173C6.51525 25.4966 7.15706 25.8061 7.84629 25.9027C8.53552 25.9992 9.23769 25.8778 9.85454 25.5556ZM21.5668 7.13892C20.2559 5.81533 18.5302 4.98207 16.6784 4.77856C14.8266 4.57505 12.9611 5.01364 11.394 6.02093L4.57392 10.2308C4.07931 10.5365 3.66028 10.9502 3.34821 11.4408C3.03614 11.9314 2.83911 12.4863 2.77189 13.0639C2.70466 13.6414 2.76897 14.2267 2.96001 14.7759C3.15105 15.3251 3.46387 15.8239 3.87503 16.2351L12.4813 24.8425C12.8931 25.2548 13.393 25.5684 13.9435 25.7596C14.494 25.9508 15.0806 26.0147 15.6594 25.9466C16.2381 25.8784 16.7938 25.6799 17.2848 25.366C17.7757 25.052 18.1891 24.6309 18.4938 24.1342L22.9268 16.9033C23.7927 15.3482 24.1283 13.5533 23.8829 11.7904C23.6375 10.0275 22.8245 8.39255 21.5668 7.13302V7.13892ZM23.0768 28.3334C22.8274 28.3339 22.5844 28.2554 22.3824 28.1092C22.1805 27.963 22.03 27.7567 21.9525 27.5197C21.875 27.2827 21.8746 27.0273 21.9512 26.79C22.0278 26.5528 22.1776 26.3459 22.3791 26.199C24.4462 24.6448 25.8452 22.363 26.2926 19.8157C26.324 19.6624 26.3855 19.5168 26.4737 19.3875C26.5618 19.2581 26.6748 19.1476 26.806 19.0624C26.9373 18.9771 27.0842 18.9188 27.2382 18.8908C27.3922 18.8628 27.5502 18.8657 27.703 18.8994C27.8559 18.9331 28.0005 18.9968 28.1285 19.0868C28.2565 19.1769 28.3654 19.2915 28.4487 19.424C28.532 19.5565 28.5881 19.7043 28.6138 19.8587C28.6394 20.0131 28.6342 20.171 28.5982 20.3234C28.0198 23.4302 26.2978 26.2073 23.7721 28.1068C23.5702 28.254 23.3267 28.3334 23.0768 28.3334ZM1.51392 6.77531C1.29587 6.77434 1.08236 6.713 0.897042 6.59809C0.711729 6.48318 0.561861 6.31919 0.464054 6.12431C0.366247 5.92943 0.324323 5.71127 0.34293 5.49402C0.361538 5.27677 0.43995 5.06891 0.569472 4.8935C2.49494 2.32059 5.32926 0.578952 8.49454 0.0237107C8.80138 -0.0389098 9.12053 0.0229264 9.38178 0.195616C9.64303 0.368306 9.82498 0.637703 9.8876 0.944544C9.95022 1.25138 9.88838 1.57053 9.71569 1.83178C9.543 2.09303 9.27361 2.27498 8.96676 2.3376C6.36715 2.76688 4.03468 4.18591 2.45836 6.29718C2.34902 6.44489 2.2067 6.56503 2.04273 6.64804C1.87877 6.73104 1.69769 6.77462 1.51392 6.77531Z" fill="#040847"/>
</svg>
