<svg width="35" height="23" viewBox="0 0 35 23" fill="none" xmlns="http://www.w3.org/2000/svg">
<path d="M34.2731 0.948447C34.0407 0.647916 33.7642 0.409378 33.4596 0.246593C33.155 0.0838088 32.8283 0 32.4983 0C32.1683 0 31.8416 0.0838088 31.537 0.246593C31.2324 0.409378 30.9559 0.647916 30.7235 0.948447L19.2748 15.6337C19.0424 15.9343 18.7659 16.1728 18.4613 16.3356C18.1567 16.4984 17.83 16.5822 17.5 16.5822C17.17 16.5822 16.8433 16.4984 16.5387 16.3356C16.2341 16.1728 15.9576 15.9343 15.7252 15.6337L4.2765 0.948447C4.04412 0.647916 3.76764 0.409378 3.46303 0.246593C3.15842 0.0838088 2.83169 0 2.5017 0C2.17171 0 1.84498 0.0838088 1.54036 0.246593C1.23575 0.409378 0.95928 0.647916 0.726899 0.948447C0.261324 1.54921 0 2.36187 0 3.20896C0 4.05604 0.261324 4.86871 0.726899 5.46947L12.2006 20.1868C13.6067 21.9882 15.5127 23 17.5 23C19.4873 23 21.3933 21.9882 22.7994 20.1868L34.2731 5.46947C34.7387 4.86871 35 4.05604 35 3.20896C35 2.36187 34.7387 1.54921 34.2731 0.948447Z" fill="white"/>
</svg>
