<svg width="90" height="90" viewBox="0 0 90 90" fill="none" xmlns="http://www.w3.org/2000/svg">
<path d="M45 0C20.1411 0 0 20.1411 0 45C0 69.8589 20.1411 90 45 90C69.8589 90 90 69.8589 90 45C90 20.1411 69.8589 0 45 0ZM67.1008 30.8286L59.7157 65.6311C59.1714 68.0988 57.7016 68.6976 55.6512 67.5363L44.4012 59.244L38.9758 64.4698C38.377 65.0686 37.869 65.5766 36.7077 65.5766L37.5061 54.127L58.3548 35.2923C59.2621 34.494 58.1552 34.0403 56.9577 34.8387L31.1915 51.0605L20.0867 47.5948C17.6734 46.8327 17.619 45.1815 20.5948 44.0202L63.9798 27.2903C65.994 26.5645 67.754 27.7802 67.1008 30.8286Z" fill="#2484C6"/>
</svg>
