<svg width="19" height="20" viewBox="0 0 19 20" fill="none" xmlns="http://www.w3.org/2000/svg">
<g clip-path="url(#clip0_1776_350)">
<path d="M11.1602 8.85506V6.40508C11.1602 6.24263 11.0956 6.08684 10.9808 5.97198C10.8659 5.85711 10.7101 5.79258 10.5477 5.79258C10.3852 5.79258 10.2294 5.85711 10.1146 5.97198C9.99969 6.08684 9.93516 6.24263 9.93516 6.40508V8.00431C9.54929 7.61598 7.05581 5.10964 6.69321 4.74705C6.63671 4.68855 6.56913 4.64189 6.4944 4.60979C6.41967 4.57768 6.3393 4.56079 6.25798 4.56008C6.17665 4.55938 6.096 4.57487 6.02072 4.60567C5.94545 4.63647 5.87706 4.68195 5.81955 4.73945C5.76204 4.79696 5.71656 4.86535 5.68577 4.94062C5.65497 5.0159 5.63947 5.09655 5.64018 5.17788C5.64089 5.2592 5.65778 5.33958 5.68988 5.4143C5.72198 5.48903 5.76865 5.55662 5.82715 5.61312C6.18974 5.97572 8.67036 8.47042 9.05378 8.85506H7.48518C7.32273 8.85506 7.16694 8.91959 7.05207 9.03446C6.93721 9.14933 6.87268 9.30512 6.87268 9.46756C6.87268 9.63001 6.93721 9.7858 7.05207 9.90066C7.16694 10.0155 7.32273 10.0801 7.48518 10.0801H9.93516C10.2601 10.0801 10.5716 9.951 10.8014 9.72127C11.0311 9.49154 11.1602 9.17995 11.1602 8.85506Z" fill="white"/>
<path d="M0.121094 5.78507V8.23506C0.121094 8.39751 0.185624 8.5533 0.30049 8.66816C0.415355 8.78303 0.571147 8.84756 0.733591 8.84756C0.896035 8.84756 1.05183 8.78303 1.16669 8.66816C1.28156 8.5533 1.34609 8.39751 1.34609 8.23506V6.63583C1.73196 7.02415 4.22544 9.53049 4.58804 9.89309C4.64454 9.95159 4.71212 9.99825 4.78685 10.0304C4.86158 10.0625 4.94195 10.0793 5.02327 10.0801C5.1046 10.0808 5.18525 10.0653 5.26053 10.0345C5.3358 10.0037 5.40419 9.95819 5.4617 9.90068C5.51921 9.84317 5.56469 9.77479 5.59548 9.69951C5.62628 9.62424 5.64178 9.54359 5.64107 9.46226C5.64036 9.38093 5.62347 9.30056 5.59137 9.22583C5.55927 9.15111 5.5126 9.08352 5.4541 9.02702C5.09151 8.66442 2.61089 6.16972 2.22747 5.78507H3.79607C3.95852 5.78507 4.11431 5.72054 4.22918 5.60568C4.34404 5.49081 4.40857 5.33502 4.40857 5.17258C4.40857 5.01013 4.34404 4.85434 4.22918 4.73947C4.11431 4.62461 3.95852 4.56008 3.79607 4.56008H1.34609C1.0212 4.56008 0.709618 4.68914 0.479887 4.91887C0.250156 5.1486 0.121094 5.46018 0.121094 5.78507Z" fill="white"/>
<path d="M16.6809 10.0797C16.6809 12.0317 15.9055 13.9038 14.5252 15.284C13.145 16.6643 11.2729 17.4397 9.32094 17.4397C7.36894 17.4397 5.4969 16.6643 4.11663 15.284C2.73636 13.9038 1.96094 12.0317 1.96094 10.0797C1.96094 9.91706 2.02556 9.76106 2.14058 9.64603C2.2556 9.53101 2.4116 9.46639 2.57427 9.46639C2.73694 9.46639 2.89294 9.53101 3.00796 9.64603C3.12299 9.76106 3.1876 9.91706 3.1876 10.0797C3.1876 11.2928 3.54732 12.4786 4.22126 13.4872C4.8952 14.4958 5.85309 15.282 6.97381 15.7462C8.09453 16.2104 9.32774 16.3319 10.5175 16.0952C11.7072 15.8586 12.8001 15.2744 13.6579 14.4166C14.5156 13.5589 15.0998 12.466 15.3364 11.2763C15.5731 10.0865 15.4516 8.85332 14.9874 7.7326C14.5232 6.61188 13.7371 5.65399 12.7284 4.98005C11.7198 4.30611 10.534 3.94639 9.32094 3.94639C9.15827 3.94639 9.00227 3.88177 8.88725 3.76675C8.77222 3.65173 8.7076 3.49573 8.7076 3.33306C8.7076 3.17039 8.77222 3.01439 8.88725 2.89937C9.00227 2.78435 9.15827 2.71973 9.32094 2.71973C11.2723 2.72184 13.1431 3.49794 14.5229 4.87775C15.9027 6.25756 16.6788 8.12838 16.6809 10.0797Z" fill="white"/>
</g>
<defs>
<clipPath id="clip0_1776_350">
<rect width="18.4" height="18.4" fill="white" transform="translate(0.121094 0.879883)"/>
</clipPath>
</defs>
</svg>
