<svg width="15" height="16" viewBox="0 0 15 16" fill="none" xmlns="http://www.w3.org/2000/svg">
<g clip-path="url(#clip0_1776_336)">
<path d="M9.35938 8.28624V5.01959C9.35938 4.803 9.27333 4.59528 9.12018 4.44213C8.96703 4.28897 8.7593 4.20293 8.54271 4.20293C8.32612 4.20293 8.1184 4.28897 7.96524 4.44213C7.81209 4.59528 7.72605 4.803 7.72605 5.01959V7.1519C7.21155 6.63414 3.88692 3.29235 3.40345 2.80889C3.32812 2.73089 3.23801 2.66867 3.13837 2.62587C3.03873 2.58307 2.93157 2.56054 2.82314 2.5596C2.7147 2.55866 2.60716 2.57932 2.5068 2.62038C2.40643 2.66145 2.31525 2.72209 2.23857 2.79877C2.16189 2.87544 2.10125 2.96663 2.06019 3.06699C2.01913 3.16736 1.99846 3.27489 1.99941 3.38333C2.00035 3.49177 2.02288 3.59893 2.06568 3.69856C2.10848 3.7982 2.17069 3.88831 2.24869 3.96365C2.73216 4.44711 6.03964 7.77338 6.55087 8.28624H4.4594C4.24281 8.28624 4.03508 8.37229 3.88193 8.52544C3.72878 8.67859 3.64274 8.88631 3.64274 9.10291C3.64274 9.3195 3.72878 9.52722 3.88193 9.68038C4.03508 9.83353 4.24281 9.91957 4.4594 9.91957H7.72605C8.15923 9.91957 8.57468 9.74749 8.88098 9.44118C9.18729 9.13487 9.35938 8.71943 9.35938 8.28624Z" fill="white"/>
<path d="M14.8802 8.07973C14.8802 10.0317 14.1047 11.9038 12.7245 13.284C11.3442 14.6643 9.47215 15.4397 7.52016 15.4397C5.56816 15.4397 3.69612 14.6643 2.31585 13.284C0.935583 11.9038 0.160156 10.0317 0.160156 8.07973C0.160156 7.91706 0.224775 7.76106 0.339797 7.64603C0.45482 7.53101 0.610823 7.46639 0.77349 7.46639C0.936156 7.46639 1.09216 7.53101 1.20718 7.64603C1.3222 7.76106 1.38682 7.91706 1.38682 8.07973C1.38682 9.29279 1.74654 10.4786 2.42048 11.4872C3.09442 12.4958 4.05231 13.282 5.17303 13.7462C6.29375 14.2104 7.52696 14.3319 8.71671 14.0952C9.90646 13.8586 10.9993 13.2744 11.8571 12.4166C12.7148 11.5589 13.299 10.466 13.5356 9.27628C13.7723 8.08653 13.6508 6.85332 13.1866 5.7326C12.7224 4.61188 11.9363 3.65399 10.9277 2.98005C9.91903 2.30611 8.73322 1.94639 7.52016 1.94639C7.35749 1.94639 7.20149 1.88177 7.08646 1.76675C6.97144 1.65173 6.90682 1.49573 6.90682 1.33306C6.90682 1.17039 6.97144 1.01439 7.08646 0.899368C7.20149 0.784345 7.35749 0.719727 7.52016 0.719727C9.4715 0.721837 11.3423 1.49794 12.7221 2.87775C14.1019 4.25756 14.878 6.12838 14.8802 8.07973Z" fill="white"/>
</g>
<defs>
<clipPath id="clip0_1776_336">
<rect width="14.72" height="14.72" fill="white" transform="translate(0.160156 0.719727)"/>
</clipPath>
</defs>
</svg>
