<svg width="16" height="16" viewBox="0 0 16 16" fill="none" xmlns="http://www.w3.org/2000/svg">
<g clip-path="url(#clip0_1776_343)">
<path d="M0.361328 2.18102V5.10314C0.361328 5.29689 0.438294 5.48271 0.575295 5.61971C0.712296 5.75671 0.89811 5.83367 1.09186 5.83367C1.28561 5.83367 1.47142 5.75671 1.60842 5.61971C1.74542 5.48271 1.82239 5.29689 1.82239 5.10314V3.19573C2.28262 3.65888 5.25661 6.64821 5.68909 7.08069C5.75648 7.15046 5.83708 7.20612 5.92621 7.2444C6.01534 7.28269 6.1112 7.30284 6.2082 7.30368C6.3052 7.30453 6.4014 7.28604 6.49117 7.24931C6.58095 7.21258 6.66252 7.15834 6.73111 7.08974C6.7997 7.02115 6.85395 6.93959 6.89068 6.84981C6.92741 6.76003 6.94589 6.66383 6.94505 6.56683C6.94421 6.46983 6.92406 6.37397 6.88577 6.28485C6.84748 6.19572 6.79183 6.11511 6.72206 6.04772C6.28958 5.61524 3.33093 2.63979 2.87362 2.18102H4.74451C4.93826 2.18102 5.12407 2.10406 5.26107 1.96705C5.39807 1.83005 5.47504 1.64424 5.47504 1.45049C5.47504 1.25674 5.39807 1.07093 5.26107 0.933928C5.12407 0.796927 4.93826 0.719961 4.74451 0.719961H1.82239C1.43489 0.719961 1.06327 0.873893 0.789264 1.1479C0.515261 1.4219 0.361328 1.79352 0.361328 2.18102Z" fill="#0290BD"/>
<path d="M15.0813 8.07973C15.0813 10.0317 14.3059 11.9038 12.9256 13.284C11.5454 14.6643 9.67332 15.4397 7.72133 15.4397C5.76933 15.4397 3.89729 14.6643 2.51702 13.284C1.13675 11.9038 0.361328 10.0317 0.361328 8.07973C0.361328 7.91706 0.425947 7.76106 0.540969 7.64603C0.655992 7.53101 0.811995 7.46639 0.974661 7.46639C1.13733 7.46639 1.29333 7.53101 1.40835 7.64603C1.52338 7.76106 1.58799 7.91706 1.58799 8.07973C1.58799 9.29279 1.94771 10.4786 2.62165 11.4872C3.29559 12.4958 4.25348 13.282 5.3742 13.7462C6.49492 14.2104 7.72813 14.3319 8.91788 14.0952C10.1076 13.8586 11.2005 13.2744 12.0583 12.4166C12.916 11.5589 13.5002 10.466 13.7368 9.27628C13.9735 8.08653 13.852 6.85332 13.3878 5.7326C12.9236 4.61188 12.1374 3.65399 11.1288 2.98005C10.1202 2.30611 8.93439 1.94639 7.72133 1.94639C7.55866 1.94639 7.40266 1.88177 7.28764 1.76675C7.17261 1.65173 7.108 1.49573 7.108 1.33306C7.108 1.17039 7.17261 1.01439 7.28764 0.899368C7.40266 0.784345 7.55866 0.719727 7.72133 0.719727C9.67267 0.721837 11.5435 1.49794 12.9233 2.87775C14.3031 4.25756 15.0792 6.12838 15.0813 8.07973Z" fill="#0290BD"/>
</g>
<defs>
<clipPath id="clip0_1776_343">
<rect width="14.72" height="14.72" fill="white" transform="translate(0.361328 0.719727)"/>
</clipPath>
</defs>
</svg>
