<svg width="44" height="54" viewBox="0 0 44 54" fill="none" xmlns="http://www.w3.org/2000/svg">
<g clip-path="url(#clip0_1360_14105)">
<path d="M21.2132 28.4026C24.0104 28.4026 26.7447 27.5697 29.0705 26.0093C31.3963 24.4488 33.209 22.2309 34.2795 19.6359C35.3499 17.041 35.63 14.1856 35.0843 11.4308C34.5386 8.67599 33.1916 6.14556 31.2137 4.15947C29.2358 2.17338 26.7158 0.820841 23.9723 0.27288C21.2289 -0.27508 18.3852 0.00615322 15.8009 1.08102C13.2167 2.15588 11.0079 3.97609 9.45381 6.31149C7.89978 8.64688 7.07031 11.3926 7.07031 14.2013C7.07406 17.9666 8.56531 21.5765 11.2168 24.239C13.8683 26.9014 17.4634 28.3988 21.2132 28.4026ZM21.2132 4.73377C23.078 4.73377 24.9009 5.28903 26.4514 6.32934C28.0019 7.36965 29.2104 8.84827 29.924 10.5782C30.6377 12.3082 30.8244 14.2118 30.4606 16.0483C30.0968 17.8849 29.1988 19.5718 27.8802 20.8959C26.5616 22.2199 24.8816 23.1216 23.0526 23.4869C21.2236 23.8522 19.3279 23.6647 17.605 22.9482C15.8822 22.2316 14.4096 21.0181 13.3736 19.4612C12.3376 17.9043 11.7846 16.0738 11.7846 14.2013C11.7846 11.6904 12.778 9.28226 14.5462 7.50675C16.3144 5.73124 18.7126 4.73377 21.2132 4.73377Z" fill="white"/>
<path d="M21.2143 30.6818C15.59 30.6887 10.1981 32.9352 6.2211 36.9286C2.24413 40.922 0.00686154 46.3362 0 51.9837C0 52.6114 0.248341 53.2135 0.690391 53.6573C1.13244 54.1012 1.73199 54.3506 2.35714 54.3506C2.9823 54.3506 3.58184 54.1012 4.02389 53.6573C4.46594 53.2135 4.71429 52.6114 4.71429 51.9837C4.71429 47.5896 6.45267 43.3754 9.54702 40.2682C12.6414 37.1611 16.8382 35.4155 21.2143 35.4155C25.5904 35.4155 29.7872 37.1611 32.8815 40.2682C35.9759 43.3754 37.7143 47.5896 37.7143 51.9837C37.7143 52.6114 37.9626 53.2135 38.4047 53.6573C38.8467 54.1012 39.4463 54.3506 40.0714 54.3506C40.6966 54.3506 41.2961 54.1012 41.7382 53.6573C42.1802 53.2135 42.4286 52.6114 42.4286 51.9837C42.4217 46.3362 40.1844 40.922 36.2075 36.9286C32.2305 32.9352 26.8386 30.6887 21.2143 30.6818Z" fill="white"/>
</g>
<defs>
<clipPath id="clip0_1360_14105">
<rect width="44" height="54" fill="white"/>
</clipPath>
</defs>
</svg>
