<svg width="200" height="200" viewBox="0 0 200 200" fill="none" xmlns="http://www.w3.org/2000/svg">
  <circle cx="100" cy="100" r="100" fill="url(#paint0_radial_339_1768)" />
  <g clip-path="url(#clip0_339_1768)">
    <path d="M98.7241 69.4368L73.5986 95.3941C71.9391 97.1086 71.9391 99.8882 73.5986 101.603L98.7241 127.56C100.384 129.274 103.074 129.274 104.734 127.56L129.859 101.603C131.519 99.8882 131.519 97.1086 129.859 95.3941L104.734 69.4368C103.074 67.7223 100.384 67.7223 98.7241 69.4368Z" fill="#2484C6" />
    <path d="M110.543 54.9267V30.9047C110.542 30.5285 110.65 30.1607 110.852 29.848C111.055 29.5352 111.342 29.2916 111.679 29.148C112.015 29.0044 112.386 28.9672 112.743 29.0413C113.1 29.1154 113.427 29.2973 113.684 29.564L168.459 86.1526C168.717 86.4178 168.893 86.7563 168.965 87.125C169.037 87.4938 169.001 87.8763 168.862 88.2239C168.723 88.5716 168.487 88.8687 168.184 89.0777C167.881 89.2867 167.525 89.3981 167.161 89.3977H143.909C143.666 89.3954 143.425 89.3433 143.202 89.2446C142.978 89.1458 142.776 89.0023 142.606 88.8223L111.083 56.2559C110.741 55.9031 110.547 55.4258 110.543 54.9267Z" fill="#2484C6" />
    <path d="M36.3031 107.608H59.5554C59.7978 107.611 60.0371 107.663 60.2598 107.762C60.4826 107.861 60.6842 108.004 60.8531 108.184L92.3759 140.75C92.5497 140.925 92.6884 141.133 92.784 141.363C92.8796 141.593 92.9302 141.84 92.9329 142.091V166.113C92.9317 166.488 92.8231 166.855 92.6208 167.167C92.4185 167.479 92.1315 167.722 91.7958 167.866C91.4602 168.009 91.0909 168.048 90.7343 167.975C90.3778 167.903 90.0498 167.723 89.7917 167.459L35.0166 110.871" fill="#2484C6" />
    <path d="M36.3031 89.3975H59.5554C59.7978 89.3948 60.0371 89.3425 60.2598 89.2437C60.4826 89.145 60.6842 89.0017 60.8531 88.8222L92.3759 56.2557C92.5502 56.0803 92.689 55.8711 92.7846 55.64C92.8802 55.4089 92.9306 55.1606 92.9329 54.9093V30.9045C92.9332 30.5284 92.8254 30.1606 92.6231 29.8478C92.4208 29.5351 92.1332 29.2914 91.7967 29.1478C91.4602 29.0042 91.09 28.9671 90.733 29.0411C90.3761 29.1152 90.0484 29.2972 89.7917 29.5639L35.0166 86.1524" fill="#2484C6" />
    <path d="M110.543 142.074V166.096C110.544 166.471 110.652 166.838 110.855 167.15C111.057 167.461 111.344 167.705 111.68 167.848C112.015 167.992 112.385 168.03 112.741 167.958C113.098 167.886 113.426 167.706 113.684 167.442L168.459 110.854C168.717 110.588 168.893 110.25 168.965 109.881C169.037 109.512 169.001 109.13 168.862 108.782C168.723 108.435 168.487 108.137 168.184 107.928C167.881 107.719 167.525 107.608 167.161 107.608H143.909C143.666 107.611 143.425 107.663 143.202 107.762C142.978 107.86 142.776 108.004 142.606 108.184L111.083 140.75C110.742 141.101 110.548 141.576 110.543 142.074Z" fill="#2484C6" />
  </g>
  <defs>
    <radialGradient id="paint0_radial_339_1768" cx="0" cy="0" r="1" gradientUnits="userSpaceOnUse" gradientTransform="translate(100 100) rotate(90) scale(100)">
      <stop stop-color="#EFEFEF" stop-opacity="0.5" />
      <stop offset="1" stop-color="#EFEFEF" stop-opacity="0.1" />
    </radialGradient>
    <clipPath id="clip0_339_1768">
      <rect width="134" height="139" fill="white" transform="translate(35 29)" />
    </clipPath>
  </defs>
</svg>
