<svg xmlns="http://www.w3.org/2000/svg" viewBox="0 0 297.58 298.52"><defs><style>.cls-1{fill:#2484c6;}</style></defs><g id="Layer_2" data-name="Layer 2"><g id="Layer_1-2" data-name="Layer 1"><path class="cls-1" d="M154.41,215.46l62.34-62.34V142.07L154.41,79.74h-11L81,142.07v11.05l62.34,62.34Z"/><path class="cls-1" d="M140.87,240.79v53.49a4.23,4.23,0,0,1-7.22,3l-132.4-133a4.23,4.23,0,0,1,3-7.22h53.5a4.26,4.26,0,0,1,3,1.24l78.91,79.55A4.25,4.25,0,0,1,140.87,240.79Z"/><path class="cls-1" d="M156.71,240.79v53.49a4.23,4.23,0,0,0,7.22,3l132.4-133a4.23,4.23,0,0,0-3-7.22H239.85a4.26,4.26,0,0,0-3,1.24L158,237.79A4.22,4.22,0,0,0,156.71,240.79Z"/><path class="cls-1" d="M156.71,57.74V4.24a4.23,4.23,0,0,1,7.22-3L296.33,134.3a4.23,4.23,0,0,1-3,7.22H239.85a4.22,4.22,0,0,1-3-1.24L158,60.73A4.22,4.22,0,0,1,156.71,57.74Z"/><path class="cls-1" d="M140.87,57.74V4.24a4.23,4.23,0,0,0-7.22-3L1.25,134.3a4.23,4.23,0,0,0,3,7.22h53.5a4.22,4.22,0,0,0,3-1.24l78.91-79.55A4.25,4.25,0,0,0,140.87,57.74Z"/></g></g></svg>