<svg width="16" height="16" viewBox="0 0 16 16" fill="none" xmlns="http://www.w3.org/2000/svg">
<path d="M13.3599 11.238C15.0609 9.72 16.0009 8 16.0009 8C16.0009 8 13.0009 2.5 8.00094 2.5C7.04053 2.50331 6.09099 2.70342 5.21094 3.088L5.98094 3.859C6.62837 3.62315 7.31189 3.50168 8.00094 3.5C10.1209 3.5 11.8799 4.668 13.1689 5.957C13.7893 6.58069 14.3454 7.26513 14.8289 8C14.7709 8.087 14.7069 8.183 14.6339 8.288C14.2989 8.768 13.8039 9.408 13.1689 10.043C13.0039 10.208 12.8319 10.371 12.6519 10.529L13.3599 11.238Z" fill="white"/>
<path d="M11.2974 9.17587C11.5205 8.55171 11.5618 7.87701 11.4165 7.23029C11.2712 6.58356 10.9452 5.99139 10.4765 5.52269C10.0078 5.05398 9.41566 4.72801 8.76893 4.5827C8.12221 4.43738 7.44751 4.47871 6.82335 4.70187L7.64635 5.52487C8.03066 5.46986 8.4225 5.50511 8.79083 5.62783C9.15915 5.75055 9.49383 5.95736 9.76834 6.23188C10.0429 6.5064 10.2497 6.84107 10.3724 7.2094C10.4951 7.57772 10.5304 7.96956 10.4754 8.35387L11.2974 9.17587ZM8.35435 10.4749L9.17635 11.2969C8.5522 11.52 7.8775 11.5613 7.23077 11.416C6.58405 11.2707 5.99188 10.9448 5.52317 10.476C5.05447 10.0073 4.72849 9.41517 4.58318 8.76845C4.43787 8.12172 4.4792 7.44702 4.70235 6.82287L5.52535 7.64587C5.47035 8.03018 5.5056 8.42202 5.62832 8.79034C5.75104 9.15866 5.95785 9.49334 6.23237 9.76786C6.50688 10.0424 6.84156 10.2492 7.20988 10.3719C7.5782 10.4946 7.97004 10.5299 8.35435 10.4749V10.4749Z" fill="white"/>
<path d="M3.35 5.47C3.17 5.63 2.997 5.792 2.832 5.957C2.21165 6.58069 1.65552 7.26512 1.172 8L1.367 8.288C1.702 8.768 2.197 9.408 2.832 10.043C4.121 11.332 5.881 12.5 8 12.5C8.716 12.5 9.39 12.367 10.02 12.14L10.79 12.912C9.90994 13.2965 8.9604 13.4967 8 13.5C3 13.5 0 8 0 8C0 8 0.939 6.279 2.641 4.762L3.349 5.471L3.35 5.47ZM13.646 14.354L1.646 2.354L2.354 1.646L14.354 13.646L13.646 14.354Z" fill="white"/>
</svg>
