<svg width="33" height="33" viewBox="0 0 33 33" fill="none" xmlns="http://www.w3.org/2000/svg">
<path d="M16.9428 10.6993C13.9953 10.6993 11.5898 13.1047 11.5898 16.0523C11.5898 18.9999 13.9953 21.4054 16.9428 21.4054C19.8904 21.4054 22.2959 18.9999 22.2959 16.0523C22.2959 13.1047 19.8904 10.6993 16.9428 10.6993ZM32.998 16.0523C32.998 13.8356 33.0181 11.639 32.8936 9.42627C32.7691 6.85616 32.1828 4.57519 30.3034 2.69579C28.42 0.812385 26.143 0.230095 23.5729 0.105605C21.3562 -0.0188846 19.1596 0.00119448 16.9469 0.00119448C14.7301 0.00119448 12.5335 -0.0188846 10.3208 0.105605C7.75069 0.230095 5.46972 0.816401 3.59033 2.69579C1.70692 4.5792 1.12463 6.85616 1.00014 9.42627C0.875647 11.643 0.895726 13.8396 0.895726 16.0523C0.895726 18.265 0.875647 20.4657 1.00014 22.6784C1.12463 25.2485 1.71093 27.5295 3.59033 29.4089C5.47373 31.2923 7.75069 31.8746 10.3208 31.9991C12.5375 32.1235 14.7342 32.1035 16.9469 32.1035C19.1636 32.1035 21.3602 32.1235 23.5729 31.9991C26.143 31.8746 28.424 31.2883 30.3034 29.4089C32.1868 27.5255 32.7691 25.2485 32.8936 22.6784C33.0221 20.4657 32.998 18.2691 32.998 16.0523V16.0523ZM16.9428 24.2887C12.3849 24.2887 8.70645 20.6103 8.70645 16.0523C8.70645 11.4944 12.3849 7.81593 16.9428 7.81593C21.5008 7.81593 25.1792 11.4944 25.1792 16.0523C25.1792 20.6103 21.5008 24.2887 16.9428 24.2887ZM25.5166 9.40217C24.4524 9.40217 23.593 8.54279 23.593 7.47861C23.593 6.41442 24.4524 5.55504 25.5166 5.55504C26.5808 5.55504 27.4401 6.41442 27.4401 7.47861C27.4405 7.7313 27.3909 7.98158 27.2944 8.2151C27.1978 8.44862 27.0561 8.6608 26.8774 8.83948C26.6988 9.01816 26.4866 9.15984 26.2531 9.2564C26.0195 9.35295 25.7693 9.40249 25.5166 9.40217V9.40217Z" fill="#040847"/>
</svg>
