<svg width="34" height="33" viewBox="0 0 34 33" fill="none" xmlns="http://www.w3.org/2000/svg">
<path fill-rule="evenodd" clip-rule="evenodd" d="M33.0525 16.0526C33.0525 24.9177 25.865 32.1053 16.9999 32.1053C8.13483 32.1053 0.947266 24.9177 0.947266 16.0526C0.947266 7.18757 8.13483 0 16.9999 0C25.865 0 33.0525 7.18757 33.0525 16.0526ZM27.2843 14.7925C27.5438 15.163 27.691 15.6005 27.707 16.0526C27.714 16.495 27.5956 16.9303 27.3655 17.3081C27.1354 17.6859 26.803 17.9909 26.4067 18.1876C26.4255 18.4231 26.4255 18.6585 26.4067 18.8939C26.4067 22.4897 22.217 25.4113 17.0481 25.4113C11.8791 25.4113 7.68937 22.4897 7.68937 18.8939C7.6713 18.6589 7.6713 18.4227 7.68937 18.1876C7.38326 18.0443 7.11181 17.8365 6.89368 17.5783C6.67555 17.3201 6.51591 17.0178 6.42573 16.692C6.33555 16.3663 6.31697 16.0249 6.37128 15.6913C6.42558 15.3577 6.55147 15.0398 6.74031 14.7595C6.92914 14.4792 7.17643 14.2431 7.46518 14.0674C7.75394 13.8918 8.0773 13.7807 8.41305 13.7419C8.7488 13.7031 9.08898 13.7374 9.41019 13.8426C9.73141 13.9477 10.026 14.1212 10.2738 14.3511C12.1235 13.0966 14.2997 12.4103 16.5344 12.3766L17.7223 6.80632C17.7356 6.74183 17.7616 6.68063 17.7988 6.62627C17.8359 6.57191 17.8835 6.52547 17.9388 6.48963C17.994 6.4538 18.0558 6.42928 18.1206 6.41751C18.1854 6.40574 18.2519 6.40694 18.3162 6.42105L22.2491 7.20763C22.4412 6.87765 22.7446 6.62693 23.1048 6.50048C23.4651 6.37402 23.8586 6.38012 24.2148 6.51767C24.571 6.65522 24.8664 6.91521 25.0482 7.25098C25.2299 7.58675 25.2861 7.97631 25.2065 8.34973C25.1269 8.72316 24.9168 9.05598 24.614 9.28848C24.3111 9.52097 23.9353 9.6379 23.554 9.61829C23.1727 9.59867 22.8109 9.44378 22.5335 9.18144C22.2561 8.91909 22.0813 8.56646 22.0404 8.18684L18.6052 7.46447L17.5617 12.4729C19.7693 12.5203 21.9159 13.206 23.742 14.4474C23.9858 14.213 24.2774 14.0342 24.5969 13.9232C24.9163 13.8122 25.256 13.7718 25.5926 13.8046C25.9292 13.8374 26.2547 13.9426 26.5467 14.1132C26.8387 14.2837 27.0903 14.5155 27.2843 14.7925ZM11.9246 16.7656C11.8074 16.941 11.7259 17.1376 11.6848 17.3445C11.6436 17.5513 11.6436 17.7642 11.6847 17.971C11.7677 18.3887 12.0133 18.7563 12.3674 18.9929C12.7215 19.2296 13.155 19.3159 13.5727 19.2328C13.7796 19.1917 13.9763 19.1103 14.1516 18.9931C14.3269 18.876 14.4775 18.7255 14.5947 18.5502C14.8313 18.1961 14.9176 17.7625 14.8346 17.3448C14.7515 16.9271 14.506 16.5595 14.1519 16.3229C13.7978 16.0862 13.3642 15.9999 12.9465 16.083C12.5288 16.166 12.1612 16.4116 11.9246 16.7656ZM17.016 23.3084C18.4406 23.3673 19.8426 22.9954 20.9809 22.1366C21.0661 22.0536 21.1148 21.9401 21.1163 21.8212C21.1178 21.7023 21.072 21.5876 20.989 21.5025C20.9479 21.4603 20.8989 21.4267 20.8447 21.4035C20.7906 21.3802 20.7325 21.3679 20.6736 21.3672C20.5547 21.3657 20.44 21.4115 20.3549 21.4945C19.3807 22.1933 18.1971 22.5388 16.9999 22.4737C15.8042 22.5271 14.6261 22.1703 13.6609 21.4624C13.5778 21.3941 13.4722 21.3592 13.3647 21.3645C13.2573 21.3698 13.1556 21.4148 13.0795 21.4909C13.0034 21.567 12.9584 21.6687 12.9531 21.7761C12.9478 21.8836 12.9827 21.9892 13.051 22.0724C14.1898 22.9306 15.5911 23.3675 17.016 23.3084ZM19.7997 19.0571C20.0646 19.2337 20.3589 19.3916 20.676 19.3916C20.8937 19.3941 21.1096 19.3523 21.3107 19.2687C21.5117 19.1851 21.6936 19.0614 21.8453 18.9052C21.997 18.749 22.1153 18.5635 22.193 18.3601C22.2707 18.1567 22.3062 17.9397 22.2973 17.7221C22.2972 17.4448 22.2252 17.1723 22.0885 16.9311C21.9518 16.6899 21.7549 16.4882 21.517 16.3457C21.2791 16.2032 21.0084 16.1247 20.7312 16.1179C20.454 16.1111 20.1798 16.1763 19.9352 16.307C19.6907 16.4377 19.4842 16.6296 19.3358 16.8638C19.1875 17.0981 19.1023 17.3668 19.0887 17.6437C19.075 17.9207 19.1334 18.1964 19.258 18.4441C19.3826 18.6918 19.5692 18.903 19.7997 19.0571Z" fill="#040847"/>
</svg>
