<svg xmlns="http://www.w3.org/2000/svg" width="30" height="30" viewBox="0 0 30 30">
  <g id="money" transform="translate(-2 -2)">
    <path id="Path_7548" data-name="Path 7548" d="M32.422,17.333l5.622-5.622L28.333,2,13,17.333" transform="translate(-6.045)" fill="#78b75b"/>
    <path id="Path_7549" data-name="Path 7549" d="M22,27.111a5.111,5.111,0,0,1,10.222,0" transform="translate(-10.111 -10.045)" fill="#669e4f"/>
    <path id="Path_7550" data-name="Path 7550" d="M32.151,29.385a2.032,2.032,0,0,0-.6-1.446,2.093,2.093,0,0,0-2.89,0l-1.446-1.446a1.024,1.024,0,0,1,1.446,0l.722-.723a2.047,2.047,0,0,0-2.891,0l-.361-.361-.723.723.362.362a2.044,2.044,0,0,0,2.891,2.891l1.446,1.446a1.024,1.024,0,0,1-1.446,0l-.722.723a2.047,2.047,0,0,0,2.891,0l.361.361.723-.723-.362-.362a2.032,2.032,0,0,0,.6-1.445Zm-4.213-.723a1.046,1.046,0,0,1-1.445,0,1.022,1.022,0,0,1,0-1.445Zm1.446,0a1.046,1.046,0,0,1,1.445,0,1.022,1.022,0,0,1,0,1.445Z" transform="translate(-11.662 -11.662)" fill="#78b75b"/>
    <g id="Group_889" data-name="Group 889" transform="translate(17.729 4.555)">
      <path id="Path_7551" data-name="Path 7551" d="M41.307,18.714l-.723-.723,3.975-3.975L38.777,8.233,34.8,12.209l-.723-.723,4.337-4.337a.512.512,0,0,1,.723,0l6.506,6.505a.513.513,0,0,1,0,.723Z" transform="translate(-34.078 -6.999)" fill="#669e4f"/>
    </g>
    <g id="Group_890" data-name="Group 890" transform="translate(22.978 13.11)">
      <path id="Path_7552" data-name="Path 7552" d="M0,0H1.022V1.022H0Z" transform="translate(0 0.724) rotate(-45.04)" fill="#96cc7f"/>
    </g>
    <g id="Group_891" data-name="Group 891" transform="translate(24.376 11.712)">
      <path id="Path_7553" data-name="Path 7553" d="M0,0H1.022V1.023H0Z" transform="translate(0 0.723) rotate(-45)" fill="#96cc7f"/>
    </g>
    <g id="Group_892" data-name="Group 892" transform="translate(19.446 9.587)">
      <path id="Path_7554" data-name="Path 7554" d="M0,0H1.022V1.022H0Z" transform="translate(0 0.723) rotate(-44.96)" fill="#96cc7f"/>
    </g>
    <g id="Group_893" data-name="Group 893" transform="translate(20.845 8.18)">
      <path id="Path_7555" data-name="Path 7555" d="M0,0H1.022V1.023H0Z" transform="translate(0 0.723) rotate(-45)" fill="#96cc7f"/>
    </g>
    <path id="Path_7556" data-name="Path 7556" d="M2,32H32V45.289H2Z" transform="translate(0 -15.333)" fill="#96cc7f"/>
    <circle id="Ellipse_105" data-name="Ellipse 105" cx="5" cy="5" r="5" transform="translate(11.677 18.333)" fill="#78b75b"/>
    <path id="Path_7557" data-name="Path 7557" d="M17,58l2.044,2.044L21.089,58" transform="translate(-7.526 -28.044)" fill="#78b75b"/>
    <path id="Path_7558" data-name="Path 7558" d="M30.066,40.578h0V38.533h0a1.023,1.023,0,0,1,1.021,1.022H32.11a2.046,2.046,0,0,0-2.043-2.044h0V37H29.043v.511a2.044,2.044,0,1,0,0,4.088v2.044a1.023,1.023,0,0,1-1.022-1.022H27a2.046,2.046,0,0,0,2.044,2.044v.511h1.022v-.511h0a2.044,2.044,0,0,0,0-4.088Zm-2.045-1.022a1.023,1.023,0,0,1,1.022-1.022v2.044A1.024,1.024,0,0,1,28.021,39.556Zm2.045,4.088h0V41.6h0a1.022,1.022,0,0,1,0,2.044Z" transform="translate(-12.555 -17.641)" fill="#669e4f"/>
    <g id="Group_894" data-name="Group 894" transform="translate(23.822 18.2)">
      <path id="Path_7559" data-name="Path 7559" d="M52.132,45.222H46V44.2h5.622V36.022H46V35h6.133a.511.511,0,0,1,.511.511v9.2A.511.511,0,0,1,52.132,45.222Z" transform="translate(-45.999 -35)" fill="#669e4f"/>
    </g>
    <g id="Group_895" data-name="Group 895" transform="translate(3.533 18.2)">
      <path id="Path_7560" data-name="Path 7560" d="M11.644,45.222H5.511A.511.511,0,0,1,5,44.711v-9.2A.511.511,0,0,1,5.511,35h6.133v1.022H6.022V44.2h5.622Z" transform="translate(-5 -35)" fill="#669e4f"/>
    </g>
    <g id="Group_896" data-name="Group 896" transform="translate(23.983 25.482)">
      <path id="Path_7561" data-name="Path 7561" d="M46,49h1.022v1.022H46Z" transform="translate(-45.999 -49)" fill="#78b75b"/>
    </g>
    <g id="Group_897" data-name="Group 897" transform="translate(25.981 25.482)">
      <path id="Path_7562" data-name="Path 7562" d="M50,49h1.022v1.022H50Z" transform="translate(-49.999 -49)" fill="#78b75b"/>
    </g>
    <g id="Group_898" data-name="Group 898" transform="translate(23.983 20.486)">
      <path id="Path_7563" data-name="Path 7563" d="M46,39h1.022v1.022H46Z" transform="translate(-45.999 -39)" fill="#78b75b"/>
    </g>
    <g id="Group_899" data-name="Group 899" transform="translate(25.981 20.486)">
      <path id="Path_7564" data-name="Path 7564" d="M50,39h1.022v1.022H50Z" transform="translate(-49.999 -39)" fill="#78b75b"/>
    </g>
    <g id="Group_900" data-name="Group 900" transform="translate(7.111 20.486)">
      <path id="Path_7565" data-name="Path 7565" d="M12,39h1.022v1.022H12Z" transform="translate(-12 -39)" fill="#78b75b"/>
    </g>
    <g id="Group_901" data-name="Group 901" transform="translate(8.995 20.486)">
      <path id="Path_7566" data-name="Path 7566" d="M16,39h1.022v1.022H16Z" transform="translate(-16 -39)" fill="#78b75b"/>
    </g>
    <g id="Group_902" data-name="Group 902" transform="translate(7.111 25.482)">
      <path id="Path_7567" data-name="Path 7567" d="M12,49h1.022v1.022H12Z" transform="translate(-12 -49)" fill="#78b75b"/>
    </g>
    <g id="Group_903" data-name="Group 903" transform="translate(8.995 25.482)">
      <path id="Path_7568" data-name="Path 7568" d="M16,49h1.022v1.022H16Z" transform="translate(-16 -49)" fill="#78b75b"/>
    </g>
  </g>
</svg>
