<svg xmlns="http://www.w3.org/2000/svg" width="22.746" height="30" viewBox="0 0 22.746 30">
  <g id="damaged" transform="translate(-63.177)">
    <path id="Path_7569" data-name="Path 7569" d="M85.721,200.359a.446.446,0,0,0-.422-.036l-2.635,1.146a.443.443,0,0,0-.059.031.348.348,0,0,1-.386-.01l-.016-.011-3.05-1.959a1.244,1.244,0,0,0-1.49.06l-2.13,1.741a.35.35,0,0,1-.29.072l-3.715-1.356-.042-.013a1.234,1.234,0,0,0-.922.123l-.02.012-2.679,1.718a.351.351,0,0,1-.3.012l-.006,0-3.763-1.567a.446.446,0,0,0-.617.412v15.2a1.781,1.781,0,0,0,1.779,1.779H78.424a2.618,2.618,0,0,0,1.858-.766l4.858-4.525.011-.011a2.618,2.618,0,0,0,.772-1.864v-9.813A.446.446,0,0,0,85.721,200.359Z" transform="translate(0 -187.71)" fill="#fe7d43"/>
    <path id="Path_7570" data-name="Path 7570" d="M435.162,215.934a.446.446,0,0,0-.386-.015l-.035.015Z" transform="translate(-349.477 -203.158)" fill="#fd6930"/>
    <path id="Path_7571" data-name="Path 7571" d="M84.145,0H64.957a1.781,1.781,0,0,0-1.779,1.779v8.778a.446.446,0,0,0,.216.382L66.644,12.9a1.692,1.692,0,0,0,1.847-.066l2.153-1.518a.8.8,0,0,1,.761-.087l3.111,1.263a1.7,1.7,0,0,0,1.646-.21l1.944-1.447a.8.8,0,0,1,.905-.034l2.4,1.522a1.69,1.69,0,0,0,1.728.049l2.555-1.423a.446.446,0,0,0,.229-.389V1.779A1.781,1.781,0,0,0,84.145,0Z" transform="translate(-0.001 0)" fill="#fe7d43"/>
    <g id="Group_904" data-name="Group 904" transform="translate(83.635 12.654)">
      <path id="Path_7572" data-name="Path 7572" d="M409.124,227.686a2.616,2.616,0,0,0,.5-1.55v-9.813a.446.446,0,0,0-.624-.409l-1.16.5v9.717a2.616,2.616,0,0,1-.5,1.55h1.783Z" transform="translate(-407.341 -215.878)" fill="#fd6930"/>
    </g>
    <g id="Group_905" data-name="Group 905" transform="translate(81.427 0)">
      <path id="Path_7573" data-name="Path 7573" d="M372.907,0h-1.783A1.781,1.781,0,0,1,372.9,1.779v8.778a.446.446,0,0,1-.229.389L370.19,12.33a1.689,1.689,0,0,0,1.712.04l2.555-1.423a.446.446,0,0,0,.229-.389V1.779A1.781,1.781,0,0,0,372.907,0Z" transform="translate(-370.19)" fill="#fd6930"/>
    </g>
    <g id="Group_906" data-name="Group 906" transform="translate(68.325 4.329)">
      <path id="Path_7574" data-name="Path 7574" d="M153.281,73.725h-3.052a.446.446,0,1,1,0-.892h3.052a.446.446,0,1,1,0,.892Z" transform="translate(-149.783 -72.833)" fill="#ef4424"/>
      <path id="Path_7575" data-name="Path 7575" d="M161.743,112.54H150.229a.446.446,0,1,1,0-.892h11.514a.446.446,0,1,1,0,.892Z" transform="translate(-149.783 -109.341)" fill="#ef4424"/>
      <path id="Path_7576" data-name="Path 7576" d="M162.433,303.927H150.963a.446.446,0,0,1,0-.892h11.471a.446.446,0,1,1,0,.892Z" transform="translate(-150.473 -289.491)" fill="#ef4424"/>
      <path id="Path_7577" data-name="Path 7577" d="M162.433,344.041H150.963a.446.446,0,1,1,0-.892h11.471a.446.446,0,1,1,0,.892Z" transform="translate(-150.473 -327.245)" fill="#ef4424"/>
      <path id="Path_7578" data-name="Path 7578" d="M159.142,384.154h-8.179a.446.446,0,0,1,0-.892h8.179a.446.446,0,1,1,0,.892Z" transform="translate(-150.473 -364.998)" fill="#ef4424"/>
      <path id="Path_7579" data-name="Path 7579" d="M323.96,390.506a1.846,1.846,0,0,0-1.844,1.844l.034,5.169a2.616,2.616,0,0,0,1.679-.759l4.858-4.525.011-.011a2.616,2.616,0,0,0,.769-1.743Z" transform="translate(-311.872 -371.856)" fill="#ef4424"/>
    </g>
  </g>
</svg>
