<svg width="8" height="6" viewBox="0 0 8 6" fill="none" xmlns="http://www.w3.org/2000/svg">
<path d="M7.83385 0.21993C7.78074 0.150241 7.71754 0.0949282 7.64792 0.0571811C7.57829 0.0194339 7.50361 0 7.42818 0C7.35276 0 7.27808 0.0194339 7.20845 0.0571811C7.13882 0.0949282 7.07563 0.150241 7.02252 0.21993L4.40567 3.62522C4.35255 3.69491 4.28936 3.75022 4.21973 3.78797C4.15011 3.82571 4.07543 3.84515 4 3.84515C3.92457 3.84515 3.84989 3.82571 3.78027 3.78797C3.71064 3.75022 3.64745 3.69491 3.59433 3.62522L0.977485 0.21993C0.924369 0.150241 0.861176 0.0949282 0.79155 0.0571811C0.721924 0.0194339 0.647243 0 0.571817 0C0.49639 0 0.421709 0.0194339 0.352083 0.0571811C0.282457 0.0949282 0.219264 0.150241 0.166148 0.21993C0.0597312 0.359236 0 0.547681 0 0.744106C0 0.940531 0.0597312 1.12898 0.166148 1.26828L2.78871 4.68101C3.1101 5.09871 3.54576 5.33333 4 5.33333C4.45424 5.33333 4.8899 5.09871 5.21129 4.68101L7.83385 1.26828C7.94027 1.12898 8 0.940531 8 0.744106C8 0.547681 7.94027 0.359236 7.83385 0.21993Z" fill="white"/>
</svg>
