<svg width="137" height="166" viewBox="0 0 137 166" fill="none" xmlns="http://www.w3.org/2000/svg">
<path d="M68.6992 165.208C64.8311 165.208 60.9869 164.301 57.5246 162.582L14.2112 140.925C5.71092 136.651 0.410156 128.103 0.410156 118.576V25.5977C0.410156 11.8205 11.6086 0.622009 25.3858 0.622009H111.989C125.766 0.622009 136.988 11.8205 136.988 25.5977V118.576C136.988 128.103 131.688 136.651 123.187 140.925L79.8738 162.582C76.4116 164.301 72.5435 165.208 68.6992 165.208ZM25.3858 3.96483C13.4472 3.96483 3.75298 13.659 3.75298 25.5977V118.576C3.75298 126.837 8.33742 134.239 15.7155 137.94L59.0289 159.597C65.0221 162.582 72.4002 162.582 78.3934 159.597L121.707 137.94C129.085 134.239 133.669 126.837 133.669 118.576V25.5977C133.669 13.659 123.951 3.94095 112.013 3.94095H25.3858V3.96483Z" fill="#0069B1"/>
<path d="M8.75 25.5975V118.576C8.75 124.879 12.3077 130.658 17.9666 133.475L61.2562 155.108C65.9361 157.448 71.4757 157.448 76.1556 155.108L119.469 133.451C125.104 130.634 128.686 124.855 128.686 118.552V25.5975C128.686 16.4048 121.236 8.93118 112.019 8.93118H25.3925C16.1997 8.95506 8.75 16.4048 8.75 25.5975Z" fill="#0069B1"/>
<path d="M22.0625 103.891V115.472C22.0625 118.623 23.8533 121.513 26.6708 122.921L67.2145 143.193C67.692 143.432 68.1934 143.551 68.6949 143.551C69.2202 143.551 69.7216 143.432 70.1753 143.193L110.719 122.921C113.536 121.513 115.327 118.623 115.327 115.472V103.867C115.327 101.097 113.083 98.8769 110.337 98.8769H27.0529C24.2831 98.8769 22.0625 101.121 22.0625 103.891Z" fill="white"/>
<path d="M41.8253 73.784C39.5933 73.7695 37.568 73.3482 35.7494 72.5204C33.9307 71.6925 32.4983 70.5191 31.4522 69.0003C30.4059 67.5054 29.8892 65.774 29.9021 63.8061C29.918 61.3581 30.6161 59.2026 31.9963 57.3396C33.4004 55.4767 35.3902 53.9776 37.9657 52.8424C40.5413 51.6832 43.5942 50.9471 47.1243 50.6341C46.8612 50.4883 46.4908 50.2459 46.013 49.9068C44.3646 48.744 42.9901 47.8951 41.8895 47.3599C40.789 46.8247 39.6988 46.5416 38.619 46.5105C37.6349 46.5281 36.7329 46.8222 35.9132 47.3929C35.1174 47.9637 34.5252 48.6199 34.1363 49.3614L31.8429 47.7264C32.6697 46.0757 33.6618 44.8342 34.8193 44.0017C36.0009 43.1454 37.3116 42.7339 38.7514 42.7673C40.0955 42.7521 41.3895 43.0605 42.6334 43.6926C43.9014 44.3249 45.5744 45.4038 47.6525 46.9294C48.8466 47.8252 49.7783 48.4913 50.4475 48.9277C51.1168 49.3401 51.8225 49.6927 52.5646 49.9855L52.1082 53.7266C51.1483 53.7204 50.4402 53.7277 49.984 53.7488C50.4277 55.6477 51.8975 56.6053 54.3934 56.6216L55.0054 56.6256L55.2085 58.6069L54.9796 60.5855L54.3676 60.5815C52.2316 60.5676 50.5435 59.9686 49.3032 58.7844C48.0869 57.6005 47.4254 55.9881 47.3187 53.9474C44.4607 54.2408 41.9847 54.8486 39.8906 55.771C37.7967 56.6694 36.1695 57.7748 35.0089 59.0873C33.8723 60.3999 33.239 61.8238 33.109 63.359C33.0531 64.5826 33.4059 65.6769 34.1677 66.6419C34.9532 67.6311 36.0642 68.4063 37.5006 68.9677C38.9609 69.5292 40.6151 69.816 42.4631 69.8281C44.311 69.8401 46.0042 69.6592 47.5427 69.2852C49.105 68.9354 50.3193 68.5833 51.1857 68.2289L52.5337 71.2978C51.5701 71.8435 50.1985 72.3986 48.4188 72.963C46.663 73.5275 44.4652 73.8012 41.8253 73.784ZM57.9382 56.6447C58.6911 55.2816 59.4795 54.0027 60.3033 52.808C60.3582 51.7524 60.3879 50.8645 60.3926 50.1446C60.408 47.7926 60.3053 45.1279 60.0847 42.1504C59.8883 39.149 59.6861 37.0357 59.4781 35.8103L62.9032 35.0406C63.0875 36.2178 63.2561 37.959 63.4091 40.264C63.5862 42.5452 63.6674 44.8258 63.6525 47.1057L63.6048 48.9055C66.3098 46.307 68.9823 45.0164 71.6222 45.0336C72.9182 45.0421 74.0803 45.3257 75.1087 45.8844C76.1611 46.4433 76.9841 47.2167 77.5777 48.2045C78.1714 49.1684 78.4642 50.2744 78.456 51.5223C78.4426 53.5863 77.6147 55.4049 75.9724 56.9783C77.8933 56.8468 79.2018 56.7833 79.8977 56.7879L80.1008 58.7692L79.8719 60.7478C75.672 60.7204 72.5779 60.4242 70.5895 59.8592C68.666 60.3987 66.5882 60.6612 64.3563 60.6466L54.6005 60.583L54.6263 56.6231L57.9382 56.6447ZM61.4301 56.6675C61.934 56.6947 62.8099 56.7124 64.0578 56.7206C66.2658 56.735 68.2234 56.4957 69.9306 56.0029C71.6619 55.5101 72.9982 54.8588 73.9395 54.0489C74.9048 53.2392 75.3904 52.3784 75.3963 51.4664C75.4012 50.7224 75.0933 50.0964 74.4726 49.5883C73.8759 49.0804 73.0375 48.823 71.9575 48.8159C70.2776 48.805 68.5091 49.4895 66.652 50.8694C64.819 52.2495 63.0784 54.1821 61.4301 56.6675ZM99.6836 60.8769C98.4838 60.8451 97.4898 60.5266 96.7018 59.9215C95.9378 59.2925 95.3915 58.4249 95.0627 57.3187C94.4797 58.3949 93.7541 59.2542 92.8858 59.8966C92.0418 60.5151 91.1158 60.8211 90.1078 60.8145L89.9638 60.8136C88.8838 60.8065 87.9739 60.4886 87.234 59.8597C86.4941 59.2309 86.0315 58.3879 85.8464 57.3306C84.2474 59.6243 82.236 60.7632 79.812 60.7474L79.668 60.7464L79.4649 58.7651L79.6938 56.7865L79.8738 56.7877C80.7378 56.7933 81.5431 56.6066 82.2895 56.2274C83.06 55.8484 83.6512 55.3603 84.0631 54.763C84.5472 54.1421 84.9236 53.4605 85.1925 52.7183C85.4853 51.9762 85.7426 51.1738 85.9642 50.3113L88.986 50.655C88.9612 50.7748 88.826 51.2659 88.5804 52.1284C88.3348 52.9908 88.2095 53.806 88.2044 54.574C88.1996 55.3179 88.3399 55.8829 88.6254 56.2687C88.9349 56.6548 89.4136 56.8499 90.0616 56.8541L90.1336 56.8546C90.8296 56.8591 91.4428 56.6711 91.9733 56.2906C92.504 55.886 92.9878 55.3012 93.4248 54.536C93.9592 53.5555 94.377 52.0581 94.6781 50.0441L97.7011 50.2078C97.4033 51.7179 97.2515 52.9049 97.2459 53.7689C97.2392 54.8009 97.4381 55.5822 97.8426 56.1128C98.2472 56.6435 98.8934 56.9117 99.7814 56.9175C100.621 56.923 101.259 56.6991 101.694 56.2459C102.129 55.7688 102.349 55.0982 102.355 54.2342C102.36 53.4662 102.127 52.3727 101.656 50.9536C101.21 49.5106 100.809 48.38 100.454 47.5617L103.381 45.9607C103.854 46.9958 104.325 48.3309 104.795 49.966C105.288 51.6013 105.531 53.0549 105.522 54.3269C105.515 55.5268 105.267 56.6292 104.781 57.6341C104.294 58.6389 103.617 59.4385 102.749 60.0329C101.881 60.6032 100.908 60.8849 99.8276 60.8779L99.6836 60.8769Z" fill="white"/>
<path d="M64.5241 115.897H67.0441C68.4841 115.873 69.6121 115.489 70.4281 114.745C71.2681 114.001 71.6881 112.993 71.6881 111.721C71.6881 110.353 71.3281 109.321 70.6081 108.625C69.9121 107.905 68.8681 107.545 67.4761 107.545C66.1801 107.545 65.1361 107.917 64.3441 108.661C63.5761 109.381 63.1921 110.341 63.1921 111.541H59.3761C59.3761 110.269 59.7001 109.093 60.3481 108.013C61.0201 106.933 61.9681 106.081 63.1921 105.457C64.4161 104.809 65.8321 104.485 67.4401 104.485C69.9361 104.485 71.8921 105.133 73.3081 106.429C74.7241 107.701 75.4321 109.465 75.4321 111.721C75.4321 112.873 75.0721 113.965 74.3521 114.997C73.6321 116.029 72.6601 116.797 71.4361 117.301C72.8521 117.781 73.9441 118.537 74.7121 119.569C75.4801 120.577 75.8641 121.825 75.8641 123.313C75.8641 124.825 75.5041 126.145 74.7841 127.273C74.0881 128.401 73.1041 129.277 71.8321 129.901C70.5601 130.501 69.0961 130.801 67.4401 130.801C65.8081 130.801 64.3561 130.501 63.0841 129.901C61.8361 129.301 60.8641 128.461 60.1681 127.381C59.4721 126.277 59.1241 125.017 59.1241 123.601H62.9401C62.9401 124.849 63.3481 125.857 64.1641 126.625C65.0041 127.369 66.1081 127.741 67.4761 127.741C68.9401 127.741 70.0681 127.369 70.8601 126.625C71.6521 125.857 72.0481 124.765 72.0481 123.349C72.0481 121.909 71.6161 120.817 70.7521 120.073C69.9121 119.305 68.6761 118.909 67.0441 118.885H64.5241V115.897Z" fill="black"/>
</svg>
