<svg width="138" height="166" viewBox="0 0 138 166" fill="none" xmlns="http://www.w3.org/2000/svg">
<path d="M69.1738 165.186C65.3057 165.186 61.4615 164.278 57.9993 162.559L14.6858 140.902C6.18553 136.628 0.884766 128.08 0.884766 118.553V25.5751C0.884766 11.7979 12.0832 0.599495 25.8604 0.599495H112.463C126.241 0.599495 137.463 11.7979 137.463 25.5751V118.553C137.463 128.08 132.162 136.628 123.662 140.902L80.3484 162.559C76.8862 164.278 73.0181 165.186 69.1738 165.186ZM25.8604 3.94232C13.9218 3.94232 4.22759 13.6365 4.22759 25.5751V118.553C4.22759 126.815 8.81203 134.217 16.1901 137.918L59.5035 159.575C65.4967 162.559 72.8748 162.559 78.868 159.575L122.181 137.918C129.56 134.217 134.144 126.815 134.144 118.553V25.5751C134.144 13.6365 124.426 3.91844 112.487 3.91844H25.8604V3.94232Z" fill="#0069B1"/>
<path d="M9.22461 25.5749V118.553C9.22461 124.857 12.7823 130.635 18.4412 133.453L61.7308 155.085C66.4107 157.425 71.9503 157.425 76.6302 155.085L119.944 133.429C125.579 130.611 129.16 124.833 129.16 118.529V25.5749C129.16 16.3821 121.711 8.90855 112.494 8.90855H25.8671C16.6743 8.93243 9.22461 16.3821 9.22461 25.5749Z" fill="#0069B1"/>
<path d="M22.5352 103.869V115.449C22.5352 118.601 24.326 121.49 27.1435 122.899L67.6871 143.171C68.1647 143.41 68.6661 143.529 69.1675 143.529C69.6928 143.529 70.1942 143.41 70.6479 143.171L111.192 122.899C114.009 121.49 115.8 118.601 115.8 115.449V103.845C115.8 101.075 113.555 98.8546 110.81 98.8546H27.5255C24.7557 98.8546 22.5352 101.099 22.5352 103.869Z" fill="white" fill-opacity="0.7"/>
<g opacity="0.8">
<path d="M43.0968 73.548C40.8648 73.5641 38.834 73.1707 37.0041 72.3679C35.1743 71.5651 33.7259 70.4115 32.659 68.9072C31.5923 67.4269 31.0518 65.7027 31.0376 63.7348C31.0199 61.2868 31.6883 59.122 33.0428 57.2401C34.4212 55.3581 36.3903 53.8319 38.9499 52.6614C41.5093 51.4668 44.5518 50.6889 48.0773 50.3274C47.8122 50.1853 47.4385 49.948 46.9561 49.6155C45.2918 48.4755 43.9058 47.6454 42.798 47.1254C41.6902 46.6054 40.5963 46.3373 39.5161 46.3211C38.5323 46.3522 37.6345 46.6587 36.8227 47.2406C36.0349 47.8223 35.4516 48.4865 35.073 49.2333L32.7574 47.6299C33.5614 45.9681 34.5364 44.713 35.6823 43.8647C36.852 42.9922 38.1569 42.5628 39.5971 42.5764C40.9409 42.5427 42.239 42.8333 43.4915 43.4483C44.7679 44.0631 46.4556 45.119 48.5545 46.6158C49.7609 47.4952 50.7016 48.1484 51.3767 48.5755C52.0516 48.9787 52.7621 49.3215 53.5082 49.6042L53.1032 53.3512C52.1432 53.3581 51.4354 53.3752 50.9795 53.4025C51.4492 55.2952 52.932 56.2325 55.428 56.2145L56.0399 56.21L56.2702 58.1884L56.0685 60.1699L55.4565 60.1744C53.3206 60.1898 51.6244 59.614 50.3679 58.4471C49.1355 57.2799 48.4519 55.6768 48.3172 53.6377C45.4635 53.9704 42.9961 54.6122 40.9149 55.5632C38.8335 56.4903 37.2216 57.618 36.0792 58.9462C34.9607 60.2744 34.3471 61.7068 34.2382 63.2436C34.199 64.468 34.5669 65.5573 35.3418 66.5118C36.1409 67.49 37.2624 68.2499 38.7063 68.7915C40.1743 69.3329 41.8322 69.597 43.6802 69.5836C45.5281 69.5703 47.2187 69.3661 48.7519 68.971C50.3092 68.5998 51.5186 68.231 52.38 67.8648L53.7701 70.9148C52.8141 71.4737 51.4502 72.0476 49.6784 72.6364C47.9306 73.225 45.7367 73.5289 43.0968 73.548ZM58.9727 56.1889C59.7068 54.8155 60.4776 53.5259 61.2849 52.3201C61.3252 51.2638 61.3428 50.3756 61.3376 49.6556C61.3206 47.3037 61.1814 44.6406 60.9199 41.6664C60.6823 38.6681 60.451 36.5577 60.2262 35.3353L63.6404 34.5186C63.8409 35.6932 64.0334 37.4318 64.2181 39.7346C64.4265 42.0131 64.539 44.2924 64.5554 46.5723L64.5324 48.3725C67.2015 45.7372 69.856 44.41 72.4959 44.3909C73.7919 44.3816 74.9578 44.6492 75.9938 45.1937C77.0538 45.738 77.8873 46.5001 78.4944 47.4797C79.1013 48.4353 79.4092 49.5371 79.4183 50.7851C79.4332 52.8491 78.6303 54.6789 77.0098 56.2746C78.9287 56.1168 80.2362 56.0353 80.9322 56.0303L81.1625 58.0087L80.9608 59.9902C76.7609 60.0205 73.663 59.7669 71.667 59.2293C69.7511 59.7951 67.6771 60.0861 65.4452 60.1022L55.6894 60.1727L55.6608 56.2128L58.9727 56.1889ZM62.4646 56.1637C62.9688 56.184 63.8449 56.1897 65.0928 56.1807C67.3008 56.1647 69.2549 55.8986 70.9552 55.3823C72.6795 54.8659 74.0067 54.1963 74.9368 53.3735C75.8909 52.5506 76.3647 51.6832 76.3581 50.7712C76.3527 50.0272 76.0362 49.4055 75.4086 48.906C74.805 48.4064 73.9632 48.1604 72.8832 48.1682C71.2032 48.1804 69.4443 48.8891 67.6064 50.2944C65.7925 51.6995 64.0786 53.6559 62.4646 56.1637ZM100.772 59.8472C99.5722 59.8318 98.574 59.527 97.7777 58.9328C97.0052 58.3143 96.4469 57.4543 96.103 56.3528C95.5348 57.4369 94.8211 58.3061 93.9618 58.9603C93.1263 59.5904 92.2046 59.909 91.1966 59.9163L91.0526 59.9173C89.9726 59.9251 89.0584 59.6197 88.3099 59.0011C87.5614 58.3825 87.0874 57.5459 86.8877 56.4913C85.3204 58.8067 83.3248 59.9731 80.9009 59.9906L80.7569 59.9917L80.5266 58.0133L80.7283 56.0318L80.9083 56.0305C81.7722 56.0242 82.5748 55.8264 83.316 55.4371C84.0812 55.0476 84.6657 54.5513 85.0693 53.9484C85.5448 53.3209 85.9119 52.6343 86.1705 51.8884C86.4531 51.1423 86.6993 50.3365 86.9091 49.471L89.9353 49.7731C89.9122 49.8933 89.7837 50.3863 89.55 51.252C89.3162 52.1177 89.2021 52.9345 89.2077 53.7025C89.213 54.4465 89.3611 55.0094 89.6519 55.3913C89.9666 55.7731 90.448 55.9616 91.096 55.9569L91.168 55.9564C91.864 55.9514 92.4746 55.755 92.9998 55.3672C93.5248 54.9554 94.0006 54.3639 94.427 53.5928C94.9479 52.605 95.3451 51.1021 95.6185 49.0841L98.6435 49.2063C98.3664 50.7203 98.231 51.9093 98.2372 52.7733C98.2446 53.8053 98.4543 54.5838 98.8661 55.1088C99.2779 55.6338 99.9278 55.8932 100.816 55.8867C101.656 55.8807 102.29 55.6481 102.719 55.189C103.147 54.7059 103.358 54.0323 103.352 53.1684C103.347 52.4004 103.099 51.3101 102.609 49.8976C102.142 48.461 101.726 47.3359 101.36 46.5226L104.264 44.8816C104.752 45.9101 105.241 47.2386 105.733 48.8671C106.249 50.4954 106.511 51.9455 106.521 53.2175C106.529 54.4175 106.297 55.5232 105.825 56.5346C105.352 57.546 104.686 58.3549 103.826 58.9611C102.966 59.5433 101.996 59.8383 100.916 59.8461L100.772 59.8472Z" fill="white"/>
<path d="M71.2987 130.419H67.5187V109.287L61.1107 111.555V108.315L70.7947 104.751H71.2987V130.419Z" fill="black"/>
</g>
</svg>
