<svg width="1280" height="1421" viewBox="0 0 1280 1421" fill="none" xmlns="http://www.w3.org/2000/svg">
<path d="M1255.76 297.708L1070.12 488.832C1057.86 501.455 1057.86 521.922 1070.12 534.546L1255.76 725.669C1268.02 738.293 1287.9 738.293 1300.16 725.669L1485.8 534.546C1498.06 521.922 1498.06 501.455 1485.8 488.832L1300.16 297.708C1287.9 285.085 1268.02 285.084 1255.76 297.708Z" fill="#2484C6" fill-opacity="0.15"/>
<path d="M794.576 578.764H966.376C968.166 578.784 969.935 579.169 971.581 579.896C973.226 580.623 974.716 581.678 975.963 583L1208.87 822.787C1210.15 824.072 1211.18 825.605 1211.89 827.299C1212.59 828.993 1212.97 830.814 1212.99 832.658V1009.53C1212.98 1012.3 1212.17 1015 1210.68 1017.29C1209.19 1019.59 1207.06 1021.38 1204.58 1022.44C1202.1 1023.5 1199.38 1023.78 1196.74 1023.25C1194.11 1022.71 1191.68 1021.39 1189.78 1019.45L785.07 602.785" fill="#2484C6" fill-opacity="0.15"/>
<path d="M794.576 444.679H966.376C968.166 444.658 969.935 444.273 971.581 443.546C973.226 442.819 974.716 441.764 975.963 440.442L1208.87 200.655C1210.16 199.364 1211.18 197.823 1211.89 196.122C1212.6 194.421 1212.97 192.592 1212.99 190.742V13.9946C1212.99 11.2251 1212.19 8.51712 1210.7 6.21431C1209.2 3.91151 1207.08 2.11759 1204.59 1.06012C1202.11 0.00264246 1199.37 -0.270707 1196.73 0.27469C1194.09 0.820086 1191.67 2.15967 1189.78 4.12353L785.07 420.785" fill="#2484C6" fill-opacity="0.15"/>
<path d="M-30.3107 694.25L-215.951 885.374C-228.213 897.997 -228.213 918.464 -215.951 931.087L-30.3109 1122.21C-18.0495 1134.83 1.83011 1134.83 14.0915 1122.21L199.732 931.087C211.993 918.464 211.993 897.997 199.732 885.374L14.0915 694.25C1.83011 681.626 -18.0494 681.626 -30.3107 694.25Z" fill="#2484C6" fill-opacity="0.15"/>
<path d="M57.0176 587.41V410.535C57.015 407.766 57.8116 405.058 59.3061 402.755C60.8007 400.452 62.9257 398.658 65.412 397.601C67.8983 396.543 70.6336 396.27 73.271 396.815C75.9084 397.361 78.3292 398.7 80.2261 400.664L484.933 817.325C486.84 819.278 488.142 821.77 488.671 824.486C489.201 827.201 488.936 830.017 487.908 832.577C486.881 835.136 485.139 837.324 482.902 838.863C480.665 840.402 478.035 841.222 475.345 841.219H303.545C301.748 841.202 299.972 840.819 298.32 840.092C296.667 839.365 295.17 838.308 293.916 836.983L61.009 597.196C58.4844 594.598 57.0512 591.084 57.0176 587.41Z" fill="#2484C6" fill-opacity="0.15"/>
<path d="M57.0176 1229.07V1405.95C57.0265 1408.71 57.8285 1411.41 59.3232 1413.71C60.8179 1416 62.9384 1417.79 65.4183 1418.85C67.8982 1419.91 70.6269 1420.19 73.2614 1419.66C75.896 1419.13 78.3191 1417.8 80.2261 1415.86L484.933 999.198C486.84 997.246 488.142 994.753 488.671 992.038C489.201 989.323 488.936 986.507 487.908 983.947C486.881 981.387 485.139 979.199 482.902 977.661C480.665 976.122 478.035 975.302 475.345 975.304H303.545C301.748 975.322 299.972 975.705 298.32 976.432C296.667 977.159 295.17 978.216 293.916 979.541L61.009 1219.33C58.4906 1221.91 57.0576 1225.41 57.0176 1229.07Z" fill="#2484C6" fill-opacity="0.15"/>
</svg>
