<svg width="22" height="20" viewBox="0 0 22 20" fill="none" xmlns="http://www.w3.org/2000/svg">
<path d="M18.7 4.44444H17.6V3.33333C17.6 2.44928 17.2523 1.60143 16.6335 0.976311C16.0146 0.35119 15.1752 0 14.3 0H3.3C2.42479 0 1.58542 0.35119 0.966548 0.976311C0.347678 1.60143 0 2.44928 0 3.33333V16.6667C0 17.5507 0.347678 18.3986 0.966548 19.0237C1.58542 19.6488 2.42479 20 3.3 20H18.7C19.5752 20 20.4146 19.6488 21.0335 19.0237C21.6523 18.3986 22 17.5507 22 16.6667V7.77778C22 6.89372 21.6523 6.04588 21.0335 5.42076C20.4146 4.79563 19.5752 4.44444 18.7 4.44444ZM3.3 2.22222H14.3C14.5917 2.22222 14.8715 2.33929 15.0778 2.54766C15.2841 2.75603 15.4 3.03865 15.4 3.33333V4.44444H3.3C3.00826 4.44444 2.72847 4.32738 2.52218 4.11901C2.31589 3.91063 2.2 3.62802 2.2 3.33333C2.2 3.03865 2.31589 2.75603 2.52218 2.54766C2.72847 2.33929 3.00826 2.22222 3.3 2.22222ZM19.8 13.3333H18.7C18.4083 13.3333 18.1285 13.2163 17.9222 13.0079C17.7159 12.7995 17.6 12.5169 17.6 12.2222C17.6 11.9275 17.7159 11.6449 17.9222 11.4365C18.1285 11.2282 18.4083 11.1111 18.7 11.1111H19.8V13.3333ZM19.8 8.88889H18.7C17.8248 8.88889 16.9854 9.24008 16.3665 9.8652C15.7477 10.4903 15.4 11.3382 15.4 12.2222C15.4 13.1063 15.7477 13.9541 16.3665 14.5792C16.9854 15.2044 17.8248 15.5556 18.7 15.5556H19.8V16.6667C19.8 16.9614 19.6841 17.244 19.4778 17.4523C19.2715 17.6607 18.9917 17.7778 18.7 17.7778H3.3C3.00826 17.7778 2.72847 17.6607 2.52218 17.4523C2.31589 17.244 2.2 16.9614 2.2 16.6667V6.47778C2.55339 6.60335 2.92538 6.66723 3.3 6.66667H18.7C18.9917 6.66667 19.2715 6.78373 19.4778 6.9921C19.6841 7.20048 19.8 7.48309 19.8 7.77778V8.88889Z" fill="white"/>
</svg>
